<svg width="723" height="160" viewBox="0 0 723 160" fill="none" xmlns="http://www.w3.org/2000/svg">
<path d="M30 0.5H722.5V159.5H30C13.7076 159.5 0.5 146.292 0.5 130V30C0.5 13.7076 13.7076 0.5 30 0.5Z" fill="white" stroke="#D9D9D9"/>
<path d="M30 0.5H722.5V54.5H0.5V30C0.5 13.7076 13.7076 0.5 30 0.5Z" fill="#43C0F0" stroke="#D9D9D9"/>
<path d="M31.2995 26.8528H24.7445C24.3876 26.8528 24.1101 26.5626 24.1101 26.2198C24.1101 26.1011 24.1365 25.9824 24.2026 25.8901C25.1674 24.3209 27.5198 21.0506 32.0132 17.7802H32.0264C32.185 17.6484 36.9031 13.5341 45.2423 11.833C45.2423 11.833 56.8061 9.11649 67.9735 14.2857C67.9735 14.2857 77.3172 18.9407 81.2158 25.9165C81.3876 26.2198 81.2687 26.6154 80.9647 26.7736C80.8722 26.8264 80.7665 26.8528 80.6608 26.8528H77.8458C76.9339 26.8528 76.1013 26.3648 75.6387 25.5868C74.8194 24.1495 72.9956 21.644 69.2819 18.9802C69.2819 18.9802 62.5683 14.0352 52.022 15.0769C52.022 15.0769 46.022 15.5121 41.0528 18.611H41.0396C40.9075 18.6769 37.881 20.167 33.4934 25.7582C32.9779 26.4571 32.1586 26.8528 31.2995 26.8528Z" fill="white"/>
<path d="M74.0529 29.4242H80.6079C80.9648 29.4242 81.2423 29.7143 81.2423 30.0571C81.2423 30.1758 81.2159 30.2813 81.1498 30.3868C80.185 31.956 77.8326 35.2264 73.3392 38.4967L73.326 38.5099C73.141 38.6813 68.4097 42.7692 60.1234 44.4571C60.1234 44.4571 48.5727 47.1736 37.3921 42.0044C37.3921 42.0044 28.0485 37.3495 24.1498 30.3736C23.978 30.0703 24.0969 29.6747 24.4009 29.5165C24.4934 29.4637 24.5991 29.4374 24.7049 29.4374H27.4934C28.4053 29.4374 29.2511 29.9253 29.7005 30.7165C30.5198 32.1538 32.3436 34.6593 36.0573 37.3231C36.0573 37.3231 42.7709 42.2681 53.304 41.2264C53.304 41.2264 59.304 40.7912 64.2731 37.6923L64.2864 37.6791C64.4714 37.5868 67.4714 36.0835 71.8194 30.5319C72.3745 29.833 73.1938 29.4374 74.0529 29.4242Z" fill="white"/>
<path d="M59.3172 30.9143C58.5903 30.9143 57.9031 31.2703 57.4802 31.8769C56.7665 32.9187 55.7224 33.6967 54.5198 34.0923C54.5198 34.0923 50.9119 35.3978 48.2555 32.3648L61.9207 26.2461C62.4625 25.9956 62.7136 25.3626 62.5154 24.8088C60.4669 19.4681 54.4669 16.7912 49.1145 18.8352C43.7621 20.8791 41.0793 26.8659 43.1277 32.2066C45.1762 37.5472 51.1762 40.2242 56.5286 38.1802C59.489 37.0593 61.7621 34.6461 62.7269 31.6264C62.8194 31.3231 62.6476 31.0066 62.3568 30.9143C62.3039 30.9011 62.2379 30.8879 62.185 30.8879L59.3172 30.9143ZM46.8678 28.567C46.8678 25.3626 49.4713 22.7516 52.6828 22.7516C54.4273 22.7516 56.0661 23.5165 57.1762 24.8615L46.9471 29.4769C46.8943 29.1736 46.8678 28.8703 46.8678 28.567Z" fill="white"/>
<path d="M109.91 23.168C110.801 23.168 111.664 23.3789 112.5 23.8008C113.336 24.2148 113.973 24.7539 114.41 25.418C114.832 26.0508 115.113 26.7891 115.254 27.6328C115.379 28.2109 115.441 29.1328 115.441 30.3984H106.242C106.281 31.6719 106.582 32.6953 107.145 33.4688C107.707 34.2344 108.578 34.6172 109.758 34.6172C110.859 34.6172 111.738 34.2539 112.395 33.5273C112.77 33.1055 113.035 32.6172 113.191 32.0625H115.266C115.211 32.5234 115.027 33.0391 114.715 33.6094C114.41 34.1719 114.066 34.6328 113.684 34.9922C113.043 35.6172 112.25 36.0391 111.305 36.2578C110.797 36.3828 110.223 36.4453 109.582 36.4453C108.02 36.4453 106.695 35.8789 105.609 34.7461C104.523 33.6055 103.98 32.0117 103.98 29.9648C103.98 27.9492 104.527 26.3125 105.621 25.0547C106.715 23.7969 108.145 23.168 109.91 23.168ZM113.273 28.7227C113.188 27.8086 112.988 27.0781 112.676 26.5312C112.098 25.5156 111.133 25.0078 109.781 25.0078C108.812 25.0078 108 25.3594 107.344 26.0625C106.688 26.7578 106.34 27.6445 106.301 28.7227H113.273ZM117.492 28.2305H123.375V30.3984H117.492V28.2305ZM126.035 23.4492H128.121V25.2305C128.621 24.6133 129.074 24.1641 129.48 23.8828C130.176 23.4062 130.965 23.168 131.848 23.168C132.848 23.168 133.652 23.4141 134.262 23.9062C134.605 24.1875 134.918 24.6016 135.199 25.1484C135.668 24.4766 136.219 23.9805 136.852 23.6602C137.484 23.332 138.195 23.168 138.984 23.168C140.672 23.168 141.82 23.7773 142.43 24.9961C142.758 25.6523 142.922 26.5352 142.922 27.6445V36H140.73V27.2812C140.73 26.4453 140.52 25.8711 140.098 25.5586C139.684 25.2461 139.176 25.0898 138.574 25.0898C137.746 25.0898 137.031 25.3672 136.43 25.9219C135.836 26.4766 135.539 27.4023 135.539 28.6992V36H133.395V27.8086C133.395 26.957 133.293 26.3359 133.09 25.9453C132.77 25.3594 132.172 25.0664 131.297 25.0664C130.5 25.0664 129.773 25.375 129.117 25.9922C128.469 26.6094 128.145 27.7266 128.145 29.3438V36H126.035V23.4492ZM162.562 28.7227C162.539 27.4961 162.199 26.5703 161.543 25.9453C160.895 25.3125 160.102 24.9961 159.164 24.9961C158.227 24.9961 157.418 25.3125 156.738 25.9453C156.059 26.5703 155.684 27.4961 155.613 28.7227H162.562ZM153.645 29.6133C153.449 29.7461 153.258 29.8516 153.07 29.9297C152.883 30 152.551 30.0742 152.074 30.1523L150.281 30.4219C149.414 30.5625 148.793 30.7383 148.418 30.9492C147.801 31.3086 147.492 31.8711 147.492 32.6367C147.492 33.293 147.738 33.7969 148.23 34.1484C148.73 34.5 149.316 34.6758 149.988 34.6758C150.371 34.6758 150.816 34.5781 151.324 34.3828C151.832 34.1875 152.301 33.8867 152.73 33.4805C153.113 33.1211 153.363 32.7539 153.48 32.3789C153.551 32.1445 153.605 31.75 153.645 31.1953V29.6133ZM152.508 28.3945C152.906 28.3398 153.203 28.1992 153.398 27.9727C153.594 27.7461 153.691 27.4258 153.691 27.0117C153.691 26.3398 153.473 25.8281 153.035 25.4766C152.598 25.125 151.898 24.9492 150.938 24.9492C150.156 24.9492 149.531 25.0742 149.062 25.3242C148.281 25.7852 147.891 26.4492 147.891 27.3164H145.863C145.941 25.5508 146.633 24.3438 147.938 23.6953C148.688 23.3281 149.719 23.1445 151.031 23.1445C152.07 23.1445 152.961 23.3359 153.703 23.7188C154.328 24.0547 154.805 24.4922 155.133 25.0312C155.594 24.4297 156.168 23.9648 156.855 23.6367C157.551 23.3086 158.332 23.1445 159.199 23.1445C160.113 23.1445 160.957 23.3086 161.73 23.6367C162.504 23.957 163.148 24.4961 163.664 25.2539C164.125 25.8789 164.43 26.6016 164.578 27.4219C164.734 28.2344 164.812 29.2266 164.812 30.3984H155.59C155.629 31.6953 155.949 32.7227 156.551 33.4805C157.152 34.2383 157.996 34.6172 159.082 34.6172C160.098 34.6172 160.871 34.3945 161.402 33.9492C161.934 33.5039 162.301 32.875 162.504 32.0625H164.637C164.566 32.6875 164.305 33.332 163.852 33.9961C163.398 34.6523 162.922 35.1445 162.422 35.4727C161.875 35.832 161.316 36.0781 160.746 36.2109C160.184 36.3516 159.602 36.4219 159 36.4219C157.852 36.4219 156.836 36.125 155.953 35.5312C155.141 34.9297 154.621 34.3359 154.395 33.75C153.754 34.6953 153.023 35.3789 152.203 35.8008C151.391 36.2148 150.508 36.4219 149.555 36.4219C148.211 36.4219 147.172 36.0859 146.438 35.4141C145.703 34.7422 145.336 33.875 145.336 32.8125C145.336 31.4219 145.809 30.3828 146.754 29.6953C147.355 29.2578 148.16 28.9727 149.168 28.8398L152.508 28.3945ZM167.438 23.4492H169.441V25.6172C169.605 25.1953 170.008 24.6836 170.648 24.082C171.289 23.4727 172.027 23.168 172.863 23.168C172.902 23.168 172.969 23.1719 173.062 23.1797C173.156 23.1875 173.316 23.2031 173.543 23.2266V25.4531C173.418 25.4297 173.301 25.4141 173.191 25.4062C173.09 25.3984 172.977 25.3945 172.852 25.3945C171.789 25.3945 170.973 25.7383 170.402 26.4258C169.832 27.1055 169.547 27.8906 169.547 28.7812V36H167.438V23.4492ZM175.324 18.7852H177.352V28.7812L182.766 23.4492H185.461L180.656 28.1484L185.73 36H183.035L179.121 29.6719L177.352 31.2891V36H175.324V18.7852ZM192.598 23.168C193.488 23.168 194.352 23.3789 195.188 23.8008C196.023 24.2148 196.66 24.7539 197.098 25.418C197.52 26.0508 197.801 26.7891 197.941 27.6328C198.066 28.2109 198.129 29.1328 198.129 30.3984H188.93C188.969 31.6719 189.27 32.6953 189.832 33.4688C190.395 34.2344 191.266 34.6172 192.445 34.6172C193.547 34.6172 194.426 34.2539 195.082 33.5273C195.457 33.1055 195.723 32.6172 195.879 32.0625H197.953C197.898 32.5234 197.715 33.0391 197.402 33.6094C197.098 34.1719 196.754 34.6328 196.371 34.9922C195.73 35.6172 194.938 36.0391 193.992 36.2578C193.484 36.3828 192.91 36.4453 192.27 36.4453C190.707 36.4453 189.383 35.8789 188.297 34.7461C187.211 33.6055 186.668 32.0117 186.668 29.9648C186.668 27.9492 187.215 26.3125 188.309 25.0547C189.402 23.7969 190.832 23.168 192.598 23.168ZM195.961 28.7227C195.875 27.8086 195.676 27.0781 195.363 26.5312C194.785 25.5156 193.82 25.0078 192.469 25.0078C191.5 25.0078 190.688 25.3594 190.031 26.0625C189.375 26.7578 189.027 27.6445 188.988 28.7227H195.961ZM201.152 19.9453H203.285V23.4492H205.289V25.1719H203.285V33.3633C203.285 33.8008 203.434 34.0938 203.73 34.2422C203.895 34.3281 204.168 34.3711 204.551 34.3711C204.652 34.3711 204.762 34.3711 204.879 34.3711C204.996 34.3633 205.133 34.3516 205.289 34.3359V36C205.047 36.0703 204.793 36.1211 204.527 36.1523C204.27 36.1836 203.988 36.1992 203.684 36.1992C202.699 36.1992 202.031 35.9492 201.68 35.4492C201.328 34.9414 201.152 34.2852 201.152 33.4805V25.1719H199.453V23.4492H201.152V19.9453Z" fill="white"/>
<path d="M74.66 101.799C72.6683 101.799 71.0525 103.414 71.0525 105.406C71.0525 107.398 72.6683 109.014 74.66 109.014C76.6524 109.014 78.2677 107.398 78.2677 105.406C78.2676 103.414 76.6523 101.799 74.66 101.799ZM74.66 107.03C73.7635 107.03 73.0367 106.303 73.0367 105.406C73.0367 104.51 73.7635 103.783 74.66 103.783C75.5566 103.783 76.2834 104.51 76.2834 105.406C76.2833 106.303 75.5565 107.03 74.66 107.03Z" fill="black"/>
<path d="M95.9695 101.799C93.9778 101.799 92.3625 103.414 92.3625 105.406C92.3625 107.398 93.9778 109.014 95.9695 109.014C97.9618 109.014 99.577 107.398 99.577 105.406C99.577 103.414 97.9618 101.799 95.9695 101.799ZM95.9695 107.03C95.0735 107.03 94.3467 106.303 94.3467 105.406C94.3467 104.51 95.0735 103.783 95.9695 103.783C96.866 103.783 97.5928 104.51 97.5928 105.406C97.5928 106.303 96.866 107.03 95.9695 107.03Z" fill="black"/>
<path d="M80.8532 85.0462H72.7169C72.4527 85.0462 72.2006 85.1636 72.0319 85.3676L66.2072 92.3563C66.0732 92.516 66 92.7183 66 92.9277V99.0578V102.263C66 102.757 66.4 103.156 66.8929 103.156H69.6274C70.4902 101.234 72.4196 99.8886 74.6601 99.8886C76.9012 99.8886 78.83 101.234 79.6929 103.156H81.7466V85.939C81.7465 85.4455 81.346 85.0462 80.8532 85.0462ZM69.2605 93.0195C69.2605 92.808 69.3331 92.603 69.4666 92.4391L73.1852 87.8602C73.3603 87.6445 73.6231 87.5196 73.9001 87.5196H77.543C78.0513 87.5196 78.4636 87.9318 78.4636 88.4407V93.6368C78.4636 94.1452 78.0513 94.5574 77.543 94.5574H70.181C69.6726 94.5574 69.2604 94.1452 69.2604 93.6368L69.2605 93.0195Z" fill="black"/>
<path d="M84.0746 100.645C83.797 100.645 83.5727 100.87 83.5727 101.147V102.654C83.5727 102.931 83.797 103.156 84.0746 103.156H90.9373C91.411 102.101 92.2044 101.225 93.195 100.645H84.0746Z" fill="black"/>
<path d="M103.435 100.645H98.7446C99.7357 101.225 100.529 102.101 101.002 103.156H103.435C103.712 103.156 103.937 102.931 103.937 102.654V101.147C103.937 100.87 103.712 100.645 103.435 100.645Z" fill="black"/>
<path d="M102.929 79.9862H84.7063C84.1153 79.9862 83.6357 80.4657 83.6357 81.0573V97.883C83.6357 98.4746 84.1153 98.9541 84.7063 98.9541H102.929C103.521 98.9541 104 98.4746 104 97.883V81.0573C104 80.4657 103.521 79.9862 102.929 79.9862ZM100.012 85.452H87.624C87.3464 85.452 87.1215 85.2267 87.1215 84.95V83.9456C87.1215 83.668 87.3464 83.4432 87.624 83.4432H100.012C100.289 83.4432 100.514 83.668 100.514 83.9456V84.95C100.514 85.2267 100.289 85.452 100.012 85.452ZM87.624 88.4658H100.012C100.289 88.4658 100.514 88.69 100.514 88.9677V89.9727C100.514 90.2493 100.289 90.4746 100.012 90.4746H87.624C87.3464 90.4746 87.1215 90.2493 87.1215 89.9727V88.9677C87.1215 88.69 87.3464 88.4658 87.624 88.4658ZM87.624 93.4883H100.012C100.289 93.4883 100.514 93.7126 100.514 93.9903V94.9947C100.514 95.2713 100.289 95.4971 100.012 95.4971H87.624C87.3464 95.4971 87.1215 95.2712 87.1215 94.9947V93.9903C87.1215 93.7126 87.3464 93.4883 87.624 93.4883Z" fill="black"/>
<rect x="85.6333" y="81.8333" width="16.4667" height="14.5667" fill="black"/>
<path d="M87.7707 93.5196C87.8065 92.8571 87.9426 92.2806 88.1789 91.7901C88.4188 91.2995 88.8843 90.8537 89.5754 90.4527L90.6067 89.8565C91.0686 89.5879 91.3926 89.3588 91.5788 89.169C91.8725 88.8718 92.0193 88.5316 92.0193 88.1485C92.0193 87.7009 91.885 87.3464 91.6164 87.085C91.3479 86.82 90.9898 86.6875 90.5422 86.6875C89.8798 86.6875 89.4214 86.9382 89.1672 87.4395C89.0311 87.708 88.9559 88.0804 88.9416 88.5567H87.9587C87.9695 87.8871 88.093 87.341 88.3293 86.9185C88.7483 86.1737 89.4877 85.8013 90.5476 85.8013C91.4284 85.8013 92.0712 86.0394 92.4758 86.5157C92.884 86.9919 93.0881 87.5218 93.0881 88.1055C93.0881 88.7214 92.8715 89.2478 92.4382 89.6846C92.1876 89.9388 91.7382 90.2468 91.0901 90.6084L90.3542 91.0166C90.0033 91.21 89.7276 91.3944 89.5271 91.5699C89.169 91.8814 88.9434 92.2269 88.8503 92.6065H93.0505V93.5196H87.7707ZM97.1863 90.7964V87.3106L94.7209 90.7964H97.1863ZM97.2024 93.5196V91.6397H93.8293V90.6944L97.3528 85.8067H98.1692V90.7964H99.3025V91.6397H98.1692V93.5196H97.2024Z" fill="white"/>
<path d="M125.451 90.459C127.713 90.459 129.564 91.2266 131.006 92.7617C132.459 94.2969 133.186 96.2598 133.186 98.6504C133.186 101.029 132.477 103.127 131.059 104.943C129.641 106.76 127.438 107.668 124.449 107.668C121.238 107.668 118.871 106.326 117.348 103.643C116.164 101.545 115.572 98.8379 115.572 95.5215C115.572 93.5762 115.654 91.9941 115.818 90.7754C116.111 88.6074 116.68 86.8027 117.523 85.3613C118.25 84.1309 119.199 83.1406 120.371 82.3906C121.555 81.6406 122.967 81.2656 124.607 81.2656C126.975 81.2656 128.861 81.875 130.268 83.0938C131.674 84.3008 132.465 85.9121 132.641 87.9277H127.648C127.648 87.5176 127.49 87.0664 127.174 86.5742C126.635 85.7773 125.82 85.3789 124.73 85.3789C123.102 85.3789 121.941 86.293 121.25 88.1211C120.875 89.1289 120.617 90.6172 120.477 92.5859C121.098 91.8477 121.818 91.3086 122.639 90.9688C123.459 90.6289 124.396 90.459 125.451 90.459ZM122.076 95.2402C121.092 96.002 120.6 97.2324 120.6 98.9316C120.6 100.303 120.969 101.422 121.707 102.289C122.445 103.156 123.383 103.59 124.52 103.59C125.633 103.59 126.506 103.174 127.139 102.342C127.783 101.498 128.105 100.408 128.105 99.0723C128.105 97.584 127.742 96.4473 127.016 95.6621C126.289 94.8652 125.398 94.4668 124.344 94.4668C123.488 94.4668 122.732 94.7246 122.076 95.2402ZM143.838 107.738C141.928 107.738 140.211 107.176 138.688 106.051C137.164 104.914 136.291 103.262 136.068 101.094H141.061C141.178 101.844 141.494 102.453 142.01 102.922C142.525 103.391 143.211 103.625 144.066 103.625C145.719 103.625 146.879 102.711 147.547 100.883C147.91 99.875 148.139 98.4043 148.232 96.4707C147.775 97.0449 147.289 97.4844 146.773 97.7891C145.836 98.3516 144.682 98.6328 143.311 98.6328C141.283 98.6328 139.484 97.9355 137.914 96.541C136.344 95.1348 135.559 93.1133 135.559 90.4766C135.559 87.7461 136.344 85.5371 137.914 83.8496C139.496 82.1504 141.547 81.3008 144.066 81.3008C147.945 81.3008 150.605 83.0176 152.047 86.4512C152.867 88.3965 153.277 90.957 153.277 94.1328C153.277 97.2148 152.885 99.7871 152.1 101.85C150.6 105.775 147.846 107.738 143.838 107.738ZM142.08 86.2051C141.119 86.9551 140.639 88.2266 140.639 90.0195C140.639 91.5312 140.943 92.668 141.553 93.4297C142.174 94.1797 143.123 94.5547 144.4 94.5547C145.092 94.5547 145.742 94.3555 146.352 93.957C147.488 93.2305 148.057 91.9707 148.057 90.1777C148.057 88.7363 147.717 87.5938 147.037 86.75C146.369 85.9062 145.449 85.4844 144.277 85.4844C143.422 85.4844 142.689 85.7246 142.08 86.2051ZM172.438 100.971C172.438 99.1543 173.076 97.6074 174.354 96.3301C175.631 95.0645 177.172 94.4316 178.977 94.4316C180.781 94.4316 182.322 95.0703 183.6 96.3477C184.877 97.625 185.516 99.166 185.516 100.971C185.516 102.775 184.877 104.316 183.6 105.594C182.322 106.871 180.781 107.51 178.977 107.51C177.172 107.51 175.631 106.871 174.354 105.594C173.076 104.316 172.438 102.775 172.438 100.971ZM157.268 92.7969C155.99 91.5195 155.352 89.9785 155.352 88.1738C155.352 86.3691 155.99 84.8281 157.268 83.5508C158.545 82.2734 160.086 81.6348 161.891 81.6348C163.695 81.6348 165.236 82.2734 166.514 83.5508C167.791 84.8281 168.43 86.3691 168.43 88.1738C168.43 89.9785 167.791 91.5195 166.514 92.7969C165.248 94.0742 163.707 94.7129 161.891 94.7129C160.086 94.7129 158.545 94.0742 157.268 92.7969ZM164.65 107.668H161.926L176.182 81.5117H178.854L164.65 107.668ZM177.008 102.939C177.547 103.49 178.203 103.766 178.977 103.766C179.75 103.766 180.406 103.496 180.945 102.957C181.496 102.406 181.771 101.744 181.771 100.971C181.771 100.197 181.496 99.541 180.945 99.002C180.406 98.4512 179.75 98.1758 178.977 98.1758C178.203 98.1758 177.541 98.4512 176.99 99.002C176.451 99.541 176.182 100.197 176.182 100.971C176.182 101.744 176.457 102.4 177.008 102.939ZM159.922 90.1426C160.461 90.6934 161.117 90.9688 161.891 90.9688C162.664 90.9688 163.32 90.6992 163.859 90.1602C164.41 89.6094 164.686 88.9473 164.686 88.1738C164.686 87.4004 164.41 86.7441 163.859 86.2051C163.32 85.6543 162.664 85.3789 161.891 85.3789C161.117 85.3789 160.455 85.6543 159.904 86.2051C159.365 86.7441 159.096 87.4004 159.096 88.1738C159.096 88.9473 159.371 89.6035 159.922 90.1426Z" fill="#67C25B"/>
<path d="M31.3496 132.709L29.3896 127.005L27.3066 132.709H31.3496ZM28.4756 125.089H30.4531L35.1377 138H33.2217L31.9121 134.133H26.8057L25.4082 138H23.6152L28.4756 125.089ZM36.9131 127.154C36.9365 126.498 37.0508 126.018 37.2559 125.713C37.625 125.174 38.3369 124.904 39.3916 124.904C39.4912 124.904 39.5938 124.907 39.6992 124.913C39.8047 124.919 39.9248 124.928 40.0596 124.939V126.381C39.8955 126.369 39.7754 126.363 39.6992 126.363C39.6289 126.357 39.5615 126.354 39.4971 126.354C39.0166 126.354 38.7295 126.48 38.6357 126.732C38.542 126.979 38.4951 127.611 38.4951 128.631H40.0596V129.879H38.4775V138H36.9131V129.879H35.6035V128.631H36.9131V127.154ZM42.4678 135.047C42.5146 135.574 42.6465 135.979 42.8633 136.26C43.2617 136.77 43.9531 137.024 44.9375 137.024C45.5234 137.024 46.0391 136.898 46.4844 136.646C46.9297 136.389 47.1523 135.993 47.1523 135.46C47.1523 135.056 46.9736 134.748 46.6162 134.537C46.3877 134.408 45.9365 134.259 45.2627 134.089L44.0059 133.772C43.2031 133.573 42.6113 133.351 42.2305 133.104C41.5508 132.677 41.2109 132.085 41.2109 131.329C41.2109 130.438 41.5303 129.718 42.1689 129.167C42.8135 128.616 43.6777 128.341 44.7617 128.341C46.1797 128.341 47.2021 128.757 47.8291 129.589C48.2217 130.116 48.4121 130.685 48.4004 131.294H46.9062C46.877 130.937 46.751 130.611 46.5283 130.318C46.165 129.902 45.5352 129.694 44.6387 129.694C44.041 129.694 43.5869 129.809 43.2764 130.037C42.9717 130.266 42.8193 130.567 42.8193 130.942C42.8193 131.353 43.0215 131.681 43.4258 131.927C43.6602 132.073 44.0059 132.202 44.4629 132.313L45.5088 132.568C46.6455 132.844 47.4072 133.11 47.7939 133.368C48.4092 133.772 48.7168 134.408 48.7168 135.275C48.7168 136.113 48.3975 136.837 47.7588 137.446C47.126 138.056 46.1592 138.36 44.8584 138.36C43.458 138.36 42.4648 138.044 41.8789 137.411C41.2988 136.772 40.9883 135.984 40.9473 135.047H42.4678ZM54.4473 128.376C55.1152 128.376 55.7627 128.534 56.3896 128.851C57.0166 129.161 57.4941 129.565 57.8223 130.063C58.1387 130.538 58.3496 131.092 58.4551 131.725C58.5488 132.158 58.5957 132.85 58.5957 133.799H51.6963C51.7256 134.754 51.9512 135.521 52.373 136.102C52.7949 136.676 53.4482 136.963 54.333 136.963C55.1592 136.963 55.8184 136.69 56.3105 136.146C56.5918 135.829 56.791 135.463 56.9082 135.047H58.4639C58.4229 135.393 58.2852 135.779 58.0508 136.207C57.8223 136.629 57.5645 136.975 57.2773 137.244C56.7969 137.713 56.2021 138.029 55.4932 138.193C55.1123 138.287 54.6816 138.334 54.2012 138.334C53.0293 138.334 52.0361 137.909 51.2217 137.06C50.4072 136.204 50 135.009 50 133.474C50 131.962 50.4102 130.734 51.2305 129.791C52.0508 128.848 53.123 128.376 54.4473 128.376ZM56.9697 132.542C56.9053 131.856 56.7559 131.309 56.5215 130.898C56.0879 130.137 55.3643 129.756 54.3506 129.756C53.624 129.756 53.0146 130.02 52.5225 130.547C52.0303 131.068 51.7695 131.733 51.7402 132.542H56.9697ZM60.5469 128.587H62.0498V129.923C62.4951 129.372 62.9668 128.977 63.4648 128.736C63.9629 128.496 64.5166 128.376 65.126 128.376C66.4619 128.376 67.3643 128.842 67.833 129.773C68.0908 130.283 68.2197 131.013 68.2197 131.962V138H66.6113V132.067C66.6113 131.493 66.5264 131.03 66.3564 130.679C66.0752 130.093 65.5654 129.8 64.8271 129.8C64.4521 129.8 64.1445 129.838 63.9043 129.914C63.4707 130.043 63.0898 130.301 62.7617 130.688C62.498 130.998 62.3252 131.32 62.2432 131.654C62.167 131.982 62.1289 132.454 62.1289 133.069V138H60.5469V128.587ZM71.5684 133.403C71.5684 134.411 71.7822 135.255 72.21 135.935C72.6377 136.614 73.3232 136.954 74.2666 136.954C74.999 136.954 75.5996 136.641 76.0684 136.014C76.543 135.381 76.7803 134.476 76.7803 133.298C76.7803 132.108 76.5371 131.229 76.0508 130.661C75.5645 130.087 74.9639 129.8 74.249 129.8C73.4521 129.8 72.8047 130.104 72.3066 130.714C71.8145 131.323 71.5684 132.22 71.5684 133.403ZM73.9502 128.42C74.6709 128.42 75.2744 128.572 75.7607 128.877C76.042 129.053 76.3613 129.36 76.7188 129.8V125.045H78.2393V138H76.8154V136.69C76.4463 137.271 76.0098 137.689 75.5059 137.947C75.002 138.205 74.4248 138.334 73.7744 138.334C72.7256 138.334 71.8174 137.895 71.0498 137.016C70.2822 136.131 69.8984 134.956 69.8984 133.491C69.8984 132.12 70.2471 130.934 70.9443 129.932C71.6475 128.924 72.6494 128.42 73.9502 128.42ZM80.9023 125.959H82.502V128.587H84.0049V129.879H82.502V136.022C82.502 136.351 82.6133 136.57 82.8359 136.682C82.959 136.746 83.1641 136.778 83.4512 136.778C83.5273 136.778 83.6094 136.778 83.6973 136.778C83.7852 136.772 83.8877 136.764 84.0049 136.752V138C83.8232 138.053 83.6328 138.091 83.4336 138.114C83.2402 138.138 83.0293 138.149 82.8008 138.149C82.0625 138.149 81.5615 137.962 81.2979 137.587C81.0342 137.206 80.9023 136.714 80.9023 136.11V129.879H79.6279V128.587H80.9023V125.959ZM90.6055 128.631H92.2139V138H90.6055V128.631ZM90.6055 125.089H92.2139V126.882H90.6055V125.089ZM94.6133 128.587H96.1162V129.923C96.5615 129.372 97.0332 128.977 97.5312 128.736C98.0293 128.496 98.583 128.376 99.1924 128.376C100.528 128.376 101.431 128.842 101.899 129.773C102.157 130.283 102.286 131.013 102.286 131.962V138H100.678V132.067C100.678 131.493 100.593 131.03 100.423 130.679C100.142 130.093 99.6318 129.8 98.8936 129.8C98.5186 129.8 98.2109 129.838 97.9707 129.914C97.5371 130.043 97.1562 130.301 96.8281 130.688C96.5645 130.998 96.3916 131.32 96.3096 131.654C96.2334 131.982 96.1953 132.454 96.1953 133.069V138H94.6133V128.587ZM105.635 133.403C105.635 134.411 105.849 135.255 106.276 135.935C106.704 136.614 107.39 136.954 108.333 136.954C109.065 136.954 109.666 136.641 110.135 136.014C110.609 135.381 110.847 134.476 110.847 133.298C110.847 132.108 110.604 131.229 110.117 130.661C109.631 130.087 109.03 129.8 108.315 129.8C107.519 129.8 106.871 130.104 106.373 130.714C105.881 131.323 105.635 132.22 105.635 133.403ZM108.017 128.42C108.737 128.42 109.341 128.572 109.827 128.877C110.108 129.053 110.428 129.36 110.785 129.8V125.045H112.306V138H110.882V136.69C110.513 137.271 110.076 137.689 109.572 137.947C109.068 138.205 108.491 138.334 107.841 138.334C106.792 138.334 105.884 137.895 105.116 137.016C104.349 136.131 103.965 134.956 103.965 133.491C103.965 132.12 104.313 130.934 105.011 129.932C105.714 128.924 106.716 128.42 108.017 128.42ZM118.572 128.376C119.24 128.376 119.888 128.534 120.515 128.851C121.142 129.161 121.619 129.565 121.947 130.063C122.264 130.538 122.475 131.092 122.58 131.725C122.674 132.158 122.721 132.85 122.721 133.799H115.821C115.851 134.754 116.076 135.521 116.498 136.102C116.92 136.676 117.573 136.963 118.458 136.963C119.284 136.963 119.943 136.69 120.436 136.146C120.717 135.829 120.916 135.463 121.033 135.047H122.589C122.548 135.393 122.41 135.779 122.176 136.207C121.947 136.629 121.689 136.975 121.402 137.244C120.922 137.713 120.327 138.029 119.618 138.193C119.237 138.287 118.807 138.334 118.326 138.334C117.154 138.334 116.161 137.909 115.347 137.06C114.532 136.204 114.125 135.009 114.125 133.474C114.125 131.962 114.535 130.734 115.355 129.791C116.176 128.848 117.248 128.376 118.572 128.376ZM121.095 132.542C121.03 131.856 120.881 131.309 120.646 130.898C120.213 130.137 119.489 129.756 118.476 129.756C117.749 129.756 117.14 130.02 116.647 130.547C116.155 131.068 115.895 131.733 115.865 132.542H121.095ZM124.672 128.587H126.175V129.923C126.62 129.372 127.092 128.977 127.59 128.736C128.088 128.496 128.642 128.376 129.251 128.376C130.587 128.376 131.489 128.842 131.958 129.773C132.216 130.283 132.345 131.013 132.345 131.962V138H130.736V132.067C130.736 131.493 130.651 131.03 130.481 130.679C130.2 130.093 129.69 129.8 128.952 129.8C128.577 129.8 128.27 129.838 128.029 129.914C127.596 130.043 127.215 130.301 126.887 130.688C126.623 130.998 126.45 131.32 126.368 131.654C126.292 131.982 126.254 132.454 126.254 133.069V138H124.672V128.587ZM140.097 127.154C140.12 126.498 140.234 126.018 140.439 125.713C140.809 125.174 141.521 124.904 142.575 124.904C142.675 124.904 142.777 124.907 142.883 124.913C142.988 124.919 143.108 124.928 143.243 124.939V126.381C143.079 126.369 142.959 126.363 142.883 126.363C142.812 126.357 142.745 126.354 142.681 126.354C142.2 126.354 141.913 126.48 141.819 126.732C141.726 126.979 141.679 127.611 141.679 128.631H143.243V129.879H141.661V138H140.097V129.879H138.787V128.631H140.097V127.154ZM148.446 136.98C149.495 136.98 150.213 136.585 150.6 135.794C150.992 134.997 151.188 134.112 151.188 133.14C151.188 132.261 151.048 131.546 150.767 130.995C150.321 130.128 149.554 129.694 148.464 129.694C147.497 129.694 146.794 130.063 146.354 130.802C145.915 131.54 145.695 132.431 145.695 133.474C145.695 134.476 145.915 135.311 146.354 135.979C146.794 136.646 147.491 136.98 148.446 136.98ZM148.508 128.314C149.721 128.314 150.746 128.719 151.584 129.527C152.422 130.336 152.841 131.525 152.841 133.096C152.841 134.613 152.472 135.867 151.733 136.857C150.995 137.848 149.85 138.343 148.297 138.343C147.002 138.343 145.974 137.906 145.212 137.033C144.45 136.154 144.069 134.977 144.069 133.5C144.069 131.918 144.471 130.658 145.273 129.721C146.076 128.783 147.154 128.314 148.508 128.314ZM154.774 128.587H156.277V130.213C156.4 129.896 156.702 129.513 157.183 129.062C157.663 128.604 158.217 128.376 158.844 128.376C158.873 128.376 158.923 128.379 158.993 128.385C159.063 128.391 159.184 128.402 159.354 128.42V130.09C159.26 130.072 159.172 130.061 159.09 130.055C159.014 130.049 158.929 130.046 158.835 130.046C158.038 130.046 157.426 130.304 156.998 130.819C156.57 131.329 156.356 131.918 156.356 132.586V138H154.774V128.587ZM165.137 138C165.195 136.916 165.418 135.973 165.805 135.17C166.197 134.367 166.959 133.638 168.09 132.981L169.777 132.006C170.533 131.566 171.063 131.191 171.368 130.881C171.849 130.395 172.089 129.838 172.089 129.211C172.089 128.479 171.869 127.898 171.43 127.471C170.99 127.037 170.404 126.82 169.672 126.82C168.588 126.82 167.838 127.23 167.422 128.051C167.199 128.49 167.076 129.1 167.053 129.879H165.444C165.462 128.783 165.664 127.89 166.051 127.198C166.736 125.979 167.946 125.37 169.681 125.37C171.122 125.37 172.174 125.76 172.836 126.539C173.504 127.318 173.838 128.186 173.838 129.141C173.838 130.148 173.483 131.01 172.774 131.725C172.364 132.141 171.629 132.645 170.568 133.236L169.364 133.904C168.79 134.221 168.339 134.522 168.011 134.81C167.425 135.319 167.056 135.885 166.903 136.506H173.776V138H165.137ZM180.544 133.544V127.84L176.51 133.544H180.544ZM180.57 138V134.924H175.051V133.377L180.816 125.379H182.152V133.544H184.007V134.924H182.152V138H180.57ZM191.1 125.959H192.699V128.587H194.202V129.879H192.699V136.022C192.699 136.351 192.811 136.57 193.033 136.682C193.156 136.746 193.361 136.778 193.648 136.778C193.725 136.778 193.807 136.778 193.895 136.778C193.982 136.772 194.085 136.764 194.202 136.752V138C194.021 138.053 193.83 138.091 193.631 138.114C193.438 138.138 193.227 138.149 192.998 138.149C192.26 138.149 191.759 137.962 191.495 137.587C191.231 137.206 191.1 136.714 191.1 136.11V129.879H189.825V128.587H191.1V125.959ZM195.793 128.631H197.401V138H195.793V128.631ZM195.793 125.089H197.401V126.882H195.793V125.089ZM199.801 128.587H201.365V129.923C201.74 129.46 202.08 129.123 202.385 128.912C202.906 128.555 203.498 128.376 204.16 128.376C204.91 128.376 205.514 128.561 205.971 128.93C206.229 129.141 206.463 129.451 206.674 129.861C207.025 129.357 207.438 128.985 207.913 128.745C208.388 128.499 208.921 128.376 209.513 128.376C210.778 128.376 211.64 128.833 212.097 129.747C212.343 130.239 212.466 130.901 212.466 131.733V138H210.822V131.461C210.822 130.834 210.664 130.403 210.348 130.169C210.037 129.935 209.656 129.817 209.205 129.817C208.584 129.817 208.048 130.025 207.597 130.441C207.151 130.857 206.929 131.552 206.929 132.524V138H205.32V131.856C205.32 131.218 205.244 130.752 205.092 130.459C204.852 130.02 204.403 129.8 203.747 129.8C203.149 129.8 202.604 130.031 202.112 130.494C201.626 130.957 201.383 131.795 201.383 133.008V138H199.801V128.587ZM218.715 128.376C219.383 128.376 220.03 128.534 220.657 128.851C221.284 129.161 221.762 129.565 222.09 130.063C222.406 130.538 222.617 131.092 222.723 131.725C222.816 132.158 222.863 132.85 222.863 133.799H215.964C215.993 134.754 216.219 135.521 216.641 136.102C217.062 136.676 217.716 136.963 218.601 136.963C219.427 136.963 220.086 136.69 220.578 136.146C220.859 135.829 221.059 135.463 221.176 135.047H222.731C222.69 135.393 222.553 135.779 222.318 136.207C222.09 136.629 221.832 136.975 221.545 137.244C221.064 137.713 220.47 138.029 219.761 138.193C219.38 138.287 218.949 138.334 218.469 138.334C217.297 138.334 216.304 137.909 215.489 137.06C214.675 136.204 214.268 135.009 214.268 133.474C214.268 131.962 214.678 130.734 215.498 129.791C216.318 128.848 217.391 128.376 218.715 128.376ZM221.237 132.542C221.173 131.856 221.023 131.309 220.789 130.898C220.355 130.137 219.632 129.756 218.618 129.756C217.892 129.756 217.282 130.02 216.79 130.547C216.298 131.068 216.037 131.733 216.008 132.542H221.237ZM224.858 128.587H226.361V130.213C226.484 129.896 226.786 129.513 227.267 129.062C227.747 128.604 228.301 128.376 228.928 128.376C228.957 128.376 229.007 128.379 229.077 128.385C229.147 128.391 229.268 128.402 229.438 128.42V130.09C229.344 130.072 229.256 130.061 229.174 130.055C229.098 130.049 229.013 130.046 228.919 130.046C228.122 130.046 227.51 130.304 227.082 130.819C226.654 131.329 226.44 131.918 226.44 132.586V138H224.858V128.587Z" fill="black"/>
<path d="M330.565 67.0889H333.07L336.779 78.0049L340.462 67.0889H342.94V80H341.279V72.3799C341.279 72.1162 341.285 71.6797 341.297 71.0703C341.309 70.4609 341.314 69.8076 341.314 69.1104L337.632 80H335.9L332.191 69.1104V69.5059C332.191 69.8223 332.197 70.3057 332.209 70.9561C332.227 71.6006 332.235 72.0752 332.235 72.3799V80H330.565V67.0889ZM346.605 77.4951C346.605 77.9521 346.772 78.3125 347.106 78.5762C347.44 78.8398 347.836 78.9717 348.293 78.9717C348.85 78.9717 349.389 78.8428 349.91 78.585C350.789 78.1572 351.229 77.457 351.229 76.4844V75.21C351.035 75.333 350.786 75.4355 350.481 75.5176C350.177 75.5996 349.878 75.6582 349.585 75.6934L348.627 75.8164C348.053 75.8926 347.622 76.0127 347.335 76.1768C346.849 76.4521 346.605 76.8916 346.605 77.4951ZM350.438 74.2959C350.801 74.249 351.044 74.0967 351.167 73.8389C351.237 73.6982 351.272 73.4961 351.272 73.2324C351.272 72.6934 351.079 72.3037 350.692 72.0635C350.312 71.8174 349.764 71.6943 349.049 71.6943C348.223 71.6943 347.637 71.917 347.291 72.3623C347.098 72.6084 346.972 72.9746 346.913 73.4609H345.437C345.466 72.3008 345.841 71.4951 346.562 71.0439C347.288 70.5869 348.129 70.3584 349.084 70.3584C350.191 70.3584 351.091 70.5693 351.782 70.9912C352.468 71.4131 352.811 72.0693 352.811 72.96V78.3828C352.811 78.5469 352.843 78.6787 352.907 78.7783C352.978 78.8779 353.121 78.9277 353.338 78.9277C353.408 78.9277 353.487 78.9248 353.575 78.9189C353.663 78.9072 353.757 78.8926 353.856 78.875V80.0439C353.61 80.1143 353.423 80.1582 353.294 80.1758C353.165 80.1934 352.989 80.2021 352.767 80.2021C352.222 80.2021 351.826 80.0088 351.58 79.6221C351.451 79.417 351.36 79.127 351.308 78.752C350.985 79.1738 350.522 79.54 349.919 79.8506C349.315 80.1611 348.65 80.3164 347.924 80.3164C347.051 80.3164 346.336 80.0527 345.779 79.5254C345.229 78.9922 344.953 78.3271 344.953 77.5303C344.953 76.6572 345.226 75.9805 345.771 75.5C346.315 75.0195 347.03 74.7236 347.915 74.6123L350.438 74.2959ZM349.339 68.6533C349.644 68.6533 349.904 68.5449 350.121 68.3281C350.338 68.1113 350.446 67.8506 350.446 67.5459C350.446 67.2412 350.338 66.9805 350.121 66.7637C349.904 66.5469 349.644 66.4385 349.339 66.4385C349.04 66.4385 348.782 66.5469 348.565 66.7637C348.349 66.9805 348.24 67.2412 348.24 67.5459C348.24 67.8506 348.349 68.1113 348.565 68.3281C348.782 68.5449 349.04 68.6533 349.339 68.6533ZM349.339 65.709C349.843 65.709 350.273 65.8906 350.631 66.2539C350.994 66.6113 351.176 67.042 351.176 67.5459C351.176 68.0498 350.994 68.4834 350.631 68.8467C350.273 69.2041 349.843 69.3828 349.339 69.3828C348.835 69.3828 348.404 69.2041 348.047 68.8467C347.689 68.4834 347.511 68.0498 347.511 67.5459C347.511 67.042 347.689 66.6113 348.047 66.2539C348.404 65.8906 348.835 65.709 349.339 65.709ZM355.456 67.0889H357.038V80H355.456V67.0889ZM359.736 67.959H361.336V70.5869H362.839V71.8789H361.336V78.0225C361.336 78.3506 361.447 78.5703 361.67 78.6816C361.793 78.7461 361.998 78.7783 362.285 78.7783C362.361 78.7783 362.443 78.7783 362.531 78.7783C362.619 78.7725 362.722 78.7637 362.839 78.752V80C362.657 80.0527 362.467 80.0908 362.268 80.1143C362.074 80.1377 361.863 80.1494 361.635 80.1494C360.896 80.1494 360.396 79.9619 360.132 79.5869C359.868 79.2061 359.736 78.7139 359.736 78.1104V71.8789H358.462V70.5869H359.736V67.959ZM373.412 78.9365C374.15 78.9365 374.763 78.6289 375.249 78.0137C375.741 77.3926 375.987 76.4668 375.987 75.2363C375.987 74.4863 375.879 73.8418 375.662 73.3027C375.252 72.2656 374.502 71.7471 373.412 71.7471C372.316 71.7471 371.566 72.2949 371.162 73.3906C370.945 73.9766 370.837 74.7207 370.837 75.623C370.837 76.3496 370.945 76.9678 371.162 77.4775C371.572 78.4502 372.322 78.9365 373.412 78.9365ZM369.316 70.6309H370.854V71.8789C371.171 71.4512 371.517 71.1201 371.892 70.8857C372.425 70.5342 373.052 70.3584 373.772 70.3584C374.839 70.3584 375.744 70.7686 376.488 71.5889C377.232 72.4033 377.604 73.5693 377.604 75.0869C377.604 77.1377 377.068 78.6025 375.996 79.4814C375.316 80.0381 374.525 80.3164 373.623 80.3164C372.914 80.3164 372.319 80.1611 371.839 79.8506C371.558 79.6748 371.244 79.373 370.898 78.9453V83.7529H369.316V70.6309ZM380.672 77.4951C380.672 77.9521 380.839 78.3125 381.173 78.5762C381.507 78.8398 381.902 78.9717 382.359 78.9717C382.916 78.9717 383.455 78.8428 383.977 78.585C384.855 78.1572 385.295 77.457 385.295 76.4844V75.21C385.102 75.333 384.853 75.4355 384.548 75.5176C384.243 75.5996 383.944 75.6582 383.651 75.6934L382.693 75.8164C382.119 75.8926 381.688 76.0127 381.401 76.1768C380.915 76.4521 380.672 76.8916 380.672 77.4951ZM384.504 74.2959C384.867 74.249 385.11 74.0967 385.233 73.8389C385.304 73.6982 385.339 73.4961 385.339 73.2324C385.339 72.6934 385.146 72.3037 384.759 72.0635C384.378 71.8174 383.83 71.6943 383.115 71.6943C382.289 71.6943 381.703 71.917 381.357 72.3623C381.164 72.6084 381.038 72.9746 380.979 73.4609H379.503C379.532 72.3008 379.907 71.4951 380.628 71.0439C381.354 70.5869 382.195 70.3584 383.15 70.3584C384.258 70.3584 385.157 70.5693 385.849 70.9912C386.534 71.4131 386.877 72.0693 386.877 72.96V78.3828C386.877 78.5469 386.909 78.6787 386.974 78.7783C387.044 78.8779 387.188 78.9277 387.404 78.9277C387.475 78.9277 387.554 78.9248 387.642 78.9189C387.729 78.9072 387.823 78.8926 387.923 78.875V80.0439C387.677 80.1143 387.489 80.1582 387.36 80.1758C387.231 80.1934 387.056 80.2021 386.833 80.2021C386.288 80.2021 385.893 80.0088 385.646 79.6221C385.518 79.417 385.427 79.127 385.374 78.752C385.052 79.1738 384.589 79.54 383.985 79.8506C383.382 80.1611 382.717 80.3164 381.99 80.3164C381.117 80.3164 380.402 80.0527 379.846 79.5254C379.295 78.9922 379.02 78.3271 379.02 77.5303C379.02 76.6572 379.292 75.9805 379.837 75.5C380.382 75.0195 381.097 74.7236 381.981 74.6123L384.504 74.2959ZM383.405 68.6533C383.71 68.6533 383.971 68.5449 384.188 68.3281C384.404 68.1113 384.513 67.8506 384.513 67.5459C384.513 67.2412 384.404 66.9805 384.188 66.7637C383.971 66.5469 383.71 66.4385 383.405 66.4385C383.106 66.4385 382.849 66.5469 382.632 66.7637C382.415 66.9805 382.307 67.2412 382.307 67.5459C382.307 67.8506 382.415 68.1113 382.632 68.3281C382.849 68.5449 383.106 68.6533 383.405 68.6533ZM383.405 65.709C383.909 65.709 384.34 65.8906 384.697 66.2539C385.061 66.6113 385.242 67.042 385.242 67.5459C385.242 68.0498 385.061 68.4834 384.697 68.8467C384.34 69.2041 383.909 69.3828 383.405 69.3828C382.901 69.3828 382.471 69.2041 382.113 68.8467C381.756 68.4834 381.577 68.0498 381.577 67.5459C381.577 67.042 381.756 66.6113 382.113 66.2539C382.471 65.8906 382.901 65.709 383.405 65.709ZM395.701 77.4951C395.701 77.9521 395.868 78.3125 396.202 78.5762C396.536 78.8398 396.932 78.9717 397.389 78.9717C397.945 78.9717 398.484 78.8428 399.006 78.585C399.885 78.1572 400.324 77.457 400.324 76.4844V75.21C400.131 75.333 399.882 75.4355 399.577 75.5176C399.272 75.5996 398.974 75.6582 398.681 75.6934L397.723 75.8164C397.148 75.8926 396.718 76.0127 396.431 76.1768C395.944 76.4521 395.701 76.8916 395.701 77.4951ZM399.533 74.2959C399.896 74.249 400.14 74.0967 400.263 73.8389C400.333 73.6982 400.368 73.4961 400.368 73.2324C400.368 72.6934 400.175 72.3037 399.788 72.0635C399.407 71.8174 398.859 71.6943 398.145 71.6943C397.318 71.6943 396.732 71.917 396.387 72.3623C396.193 72.6084 396.067 72.9746 396.009 73.4609H394.532C394.562 72.3008 394.937 71.4951 395.657 71.0439C396.384 70.5869 397.225 70.3584 398.18 70.3584C399.287 70.3584 400.187 70.5693 400.878 70.9912C401.563 71.4131 401.906 72.0693 401.906 72.96V78.3828C401.906 78.5469 401.938 78.6787 402.003 78.7783C402.073 78.8779 402.217 78.9277 402.434 78.9277C402.504 78.9277 402.583 78.9248 402.671 78.9189C402.759 78.9072 402.853 78.8926 402.952 78.875V80.0439C402.706 80.1143 402.519 80.1582 402.39 80.1758C402.261 80.1934 402.085 80.2021 401.862 80.2021C401.317 80.2021 400.922 80.0088 400.676 79.6221C400.547 79.417 400.456 79.127 400.403 78.752C400.081 79.1738 399.618 79.54 399.015 79.8506C398.411 80.1611 397.746 80.3164 397.02 80.3164C396.146 80.3164 395.432 80.0527 394.875 79.5254C394.324 78.9922 394.049 78.3271 394.049 77.5303C394.049 76.6572 394.321 75.9805 394.866 75.5C395.411 75.0195 396.126 74.7236 397.011 74.6123L399.533 74.2959ZM404.552 67.0889H406.134V80H404.552V67.0889ZM408.56 67.0889H410.142V80H408.56V67.0889ZM416.443 70.376C417.111 70.376 417.759 70.5342 418.386 70.8506C419.013 71.1611 419.49 71.5654 419.818 72.0635C420.135 72.5381 420.346 73.0918 420.451 73.7246C420.545 74.1582 420.592 74.8496 420.592 75.7988H413.692C413.722 76.7539 413.947 77.5215 414.369 78.1016C414.791 78.6758 415.444 78.9629 416.329 78.9629C417.155 78.9629 417.814 78.6904 418.307 78.1455C418.588 77.8291 418.787 77.4629 418.904 77.0469H420.46C420.419 77.3926 420.281 77.7793 420.047 78.207C419.818 78.6289 419.561 78.9746 419.273 79.2441C418.793 79.7129 418.198 80.0293 417.489 80.1934C417.108 80.2871 416.678 80.334 416.197 80.334C415.025 80.334 414.032 79.9092 413.218 79.0596C412.403 78.2041 411.996 77.0088 411.996 75.4736C411.996 73.9619 412.406 72.7344 413.227 71.791C414.047 70.8477 415.119 70.376 416.443 70.376ZM418.966 74.542C418.901 73.8564 418.752 73.3086 418.518 72.8984C418.084 72.1367 417.36 71.7559 416.347 71.7559C415.62 71.7559 415.011 72.0195 414.519 72.5469C414.026 73.0684 413.766 73.7334 413.736 74.542H418.966ZM422.938 69.1543C422.962 68.498 423.076 68.0176 423.281 67.7129C423.65 67.1738 424.362 66.9043 425.417 66.9043C425.517 66.9043 425.619 66.9072 425.725 66.9131C425.83 66.9189 425.95 66.9277 426.085 66.9395V68.3809C425.921 68.3691 425.801 68.3633 425.725 68.3633C425.654 68.3574 425.587 68.3545 425.522 68.3545C425.042 68.3545 424.755 68.4805 424.661 68.7324C424.567 68.9785 424.521 69.6113 424.521 70.6309H426.085V71.8789H424.503V80H422.938V71.8789H421.629V70.6309H422.938V69.1543ZM433.828 72.5908C433.664 72.3389 433.4 72.1279 433.037 71.958C432.674 71.7822 432.27 71.6943 431.824 71.6943C430.975 71.6943 430.292 72.0518 429.776 72.7666C429.267 73.4756 429.012 74.3896 429.012 75.5088C429.012 75.9307 429.056 76.335 429.144 76.7217C429.196 76.9385 429.284 77.2139 429.407 77.5479L433.828 72.5908ZM429.803 78.1279C430.09 78.4619 430.4 78.6875 430.734 78.8047C431.068 78.9219 431.408 78.9805 431.754 78.9805C432.861 78.9805 433.646 78.459 434.109 77.416C434.391 76.7891 434.531 76.0684 434.531 75.2539C434.531 74.7266 434.487 74.2725 434.399 73.8916C434.353 73.6865 434.273 73.4463 434.162 73.1709L429.803 78.1279ZM427.201 79.9648L428.326 78.7783C428.033 78.3447 427.808 77.8584 427.649 77.3193C427.491 76.7803 427.412 76.1416 427.412 75.4033C427.412 74.0732 427.781 72.8926 428.52 71.8613C429.264 70.8242 430.345 70.3057 431.763 70.3057C432.501 70.3057 433.148 70.4404 433.705 70.71C434.033 70.8682 434.408 71.126 434.83 71.4834L435.929 70.2354L436.386 70.6748L435.261 71.9404C435.63 72.4795 435.894 73.0977 436.052 73.7949C436.151 74.2461 436.201 74.6973 436.201 75.1484C436.201 76.6602 435.794 77.9082 434.979 78.8926C434.165 79.8711 433.081 80.3604 431.728 80.3604C431.083 80.3604 430.509 80.2637 430.005 80.0703C429.501 79.8828 429.094 79.625 428.783 79.2969L427.72 80.4219L427.201 79.9648ZM438.601 70.5869H440.104V72.2129C440.227 71.8965 440.528 71.5127 441.009 71.0615C441.489 70.6045 442.043 70.376 442.67 70.376C442.699 70.376 442.749 70.3789 442.819 70.3848C442.89 70.3906 443.01 70.4023 443.18 70.4199V72.0898C443.086 72.0723 442.998 72.0605 442.916 72.0547C442.84 72.0488 442.755 72.0459 442.661 72.0459C441.864 72.0459 441.252 72.3037 440.824 72.8193C440.396 73.3291 440.183 73.918 440.183 74.5859V80H438.601V70.5869ZM444.867 67.959H446.467V70.5869H447.97V71.8789H446.467V78.0225C446.467 78.3506 446.578 78.5703 446.801 78.6816C446.924 78.7461 447.129 78.7783 447.416 78.7783C447.492 78.7783 447.574 78.7783 447.662 78.7783C447.75 78.7725 447.853 78.7637 447.97 78.752V80C447.788 80.0527 447.598 80.0908 447.398 80.1143C447.205 80.1377 446.994 80.1494 446.766 80.1494C446.027 80.1494 445.526 79.9619 445.263 79.5869C444.999 79.2061 444.867 78.7139 444.867 78.1104V71.8789H443.593V70.5869H444.867V67.959ZM453.48 70.376C454.148 70.376 454.796 70.5342 455.423 70.8506C456.05 71.1611 456.527 71.5654 456.855 72.0635C457.172 72.5381 457.383 73.0918 457.488 73.7246C457.582 74.1582 457.629 74.8496 457.629 75.7988H450.729C450.759 76.7539 450.984 77.5215 451.406 78.1016C451.828 78.6758 452.481 78.9629 453.366 78.9629C454.192 78.9629 454.852 78.6904 455.344 78.1455C455.625 77.8291 455.824 77.4629 455.941 77.0469H457.497C457.456 77.3926 457.318 77.7793 457.084 78.207C456.855 78.6289 456.598 78.9746 456.311 79.2441C455.83 79.7129 455.235 80.0293 454.526 80.1934C454.146 80.2871 453.715 80.334 453.234 80.334C452.062 80.334 451.069 79.9092 450.255 79.0596C449.44 78.2041 449.033 77.0088 449.033 75.4736C449.033 73.9619 449.443 72.7344 450.264 71.791C451.084 70.8477 452.156 70.376 453.48 70.376ZM456.003 74.542C455.938 73.8564 455.789 73.3086 455.555 72.8984C455.121 72.1367 454.397 71.7559 453.384 71.7559C452.657 71.7559 452.048 72.0195 451.556 72.5469C451.063 73.0684 450.803 73.7334 450.773 74.542H456.003ZM468.325 78.9805C469.374 78.9805 470.092 78.585 470.479 77.7939C470.871 76.9971 471.067 76.1123 471.067 75.1396C471.067 74.2607 470.927 73.5459 470.646 72.9951C470.2 72.1279 469.433 71.6943 468.343 71.6943C467.376 71.6943 466.673 72.0635 466.233 72.8018C465.794 73.54 465.574 74.4307 465.574 75.4736C465.574 76.4756 465.794 77.3105 466.233 77.9785C466.673 78.6465 467.37 78.9805 468.325 78.9805ZM468.387 70.3145C469.6 70.3145 470.625 70.7188 471.463 71.5273C472.301 72.3359 472.72 73.5254 472.72 75.0957C472.72 76.6133 472.351 77.8672 471.612 78.8574C470.874 79.8477 469.729 80.3428 468.176 80.3428C466.881 80.3428 465.853 79.9062 465.091 79.0332C464.329 78.1543 463.948 76.9766 463.948 75.5C463.948 73.918 464.35 72.6582 465.152 71.7207C465.955 70.7832 467.033 70.3145 468.387 70.3145ZM474.653 70.5869H476.156V72.2129C476.279 71.8965 476.581 71.5127 477.062 71.0615C477.542 70.6045 478.096 70.376 478.723 70.376C478.752 70.376 478.802 70.3789 478.872 70.3848C478.942 70.3906 479.062 70.4023 479.232 70.4199V72.0898C479.139 72.0723 479.051 72.0605 478.969 72.0547C478.893 72.0488 478.808 72.0459 478.714 72.0459C477.917 72.0459 477.305 72.3037 476.877 72.8193C476.449 73.3291 476.235 73.918 476.235 74.5859V80H474.653V70.5869ZM481.605 75.4033C481.605 76.4111 481.819 77.2549 482.247 77.9346C482.675 78.6143 483.36 78.9541 484.304 78.9541C485.036 78.9541 485.637 78.6406 486.105 78.0137C486.58 77.3809 486.817 76.4756 486.817 75.2979C486.817 74.1084 486.574 73.2295 486.088 72.6611C485.602 72.0869 485.001 71.7998 484.286 71.7998C483.489 71.7998 482.842 72.1045 482.344 72.7139C481.852 73.3232 481.605 74.2197 481.605 75.4033ZM483.987 70.4199C484.708 70.4199 485.312 70.5723 485.798 70.877C486.079 71.0527 486.398 71.3604 486.756 71.7998V67.0449H488.276V80H486.853V78.6904C486.483 79.2705 486.047 79.6895 485.543 79.9473C485.039 80.2051 484.462 80.334 483.812 80.334C482.763 80.334 481.854 79.8945 481.087 79.0156C480.319 78.1309 479.936 76.9561 479.936 75.4912C479.936 74.1201 480.284 72.9336 480.981 71.9316C481.685 70.9238 482.687 70.4199 483.987 70.4199ZM490.667 70.5869H492.17V72.2129C492.293 71.8965 492.595 71.5127 493.075 71.0615C493.556 70.6045 494.109 70.376 494.736 70.376C494.766 70.376 494.815 70.3789 494.886 70.3848C494.956 70.3906 495.076 70.4023 495.246 70.4199V72.0898C495.152 72.0723 495.064 72.0605 494.982 72.0547C494.906 72.0488 494.821 72.0459 494.728 72.0459C493.931 72.0459 493.318 72.3037 492.891 72.8193C492.463 73.3291 492.249 73.918 492.249 74.5859V80H490.667V70.5869ZM500.537 70.376C501.205 70.376 501.853 70.5342 502.479 70.8506C503.106 71.1611 503.584 71.5654 503.912 72.0635C504.229 72.5381 504.439 73.0918 504.545 73.7246C504.639 74.1582 504.686 74.8496 504.686 75.7988H497.786C497.815 76.7539 498.041 77.5215 498.463 78.1016C498.885 78.6758 499.538 78.9629 500.423 78.9629C501.249 78.9629 501.908 78.6904 502.4 78.1455C502.682 77.8291 502.881 77.4629 502.998 77.0469H504.554C504.513 77.3926 504.375 77.7793 504.141 78.207C503.912 78.6289 503.654 78.9746 503.367 79.2441C502.887 79.7129 502.292 80.0293 501.583 80.1934C501.202 80.2871 500.771 80.334 500.291 80.334C499.119 80.334 498.126 79.9092 497.312 79.0596C496.497 78.2041 496.09 77.0088 496.09 75.4736C496.09 73.9619 496.5 72.7344 497.32 71.791C498.141 70.8477 499.213 70.376 500.537 70.376ZM503.06 74.542C502.995 73.8564 502.846 73.3086 502.611 72.8984C502.178 72.1367 501.454 71.7559 500.44 71.7559C499.714 71.7559 499.104 72.0195 498.612 72.5469C498.12 73.0684 497.859 73.7334 497.83 74.542H503.06ZM506.681 70.5869H508.184V72.2129C508.307 71.8965 508.608 71.5127 509.089 71.0615C509.569 70.6045 510.123 70.376 510.75 70.376C510.779 70.376 510.829 70.3789 510.899 70.3848C510.97 70.3906 511.09 70.4023 511.26 70.4199V72.0898C511.166 72.0723 511.078 72.0605 510.996 72.0547C510.92 72.0488 510.835 72.0459 510.741 72.0459C509.944 72.0459 509.332 72.3037 508.904 72.8193C508.477 73.3291 508.263 73.918 508.263 74.5859V80H506.681V70.5869ZM518.643 75.4033C518.643 76.4111 518.856 77.2549 519.284 77.9346C519.712 78.6143 520.397 78.9541 521.341 78.9541C522.073 78.9541 522.674 78.6406 523.143 78.0137C523.617 77.3809 523.854 76.4756 523.854 75.2979C523.854 74.1084 523.611 73.2295 523.125 72.6611C522.639 72.0869 522.038 71.7998 521.323 71.7998C520.526 71.7998 519.879 72.1045 519.381 72.7139C518.889 73.3232 518.643 74.2197 518.643 75.4033ZM521.024 70.4199C521.745 70.4199 522.349 70.5723 522.835 70.877C523.116 71.0527 523.436 71.3604 523.793 71.7998V67.0449H525.313V80H523.89V78.6904C523.521 79.2705 523.084 79.6895 522.58 79.9473C522.076 80.2051 521.499 80.334 520.849 80.334C519.8 80.334 518.892 79.8945 518.124 79.0156C517.356 78.1309 516.973 76.9561 516.973 75.4912C516.973 74.1201 517.321 72.9336 518.019 71.9316C518.722 70.9238 519.724 70.4199 521.024 70.4199ZM531.58 70.376C532.248 70.376 532.896 70.5342 533.522 70.8506C534.149 71.1611 534.627 71.5654 534.955 72.0635C535.271 72.5381 535.482 73.0918 535.588 73.7246C535.682 74.1582 535.729 74.8496 535.729 75.7988H528.829C528.858 76.7539 529.084 77.5215 529.506 78.1016C529.928 78.6758 530.581 78.9629 531.466 78.9629C532.292 78.9629 532.951 78.6904 533.443 78.1455C533.725 77.8291 533.924 77.4629 534.041 77.0469H535.597C535.556 77.3926 535.418 77.7793 535.184 78.207C534.955 78.6289 534.697 78.9746 534.41 79.2441C533.93 79.7129 533.335 80.0293 532.626 80.1934C532.245 80.2871 531.814 80.334 531.334 80.334C530.162 80.334 529.169 79.9092 528.354 79.0596C527.54 78.2041 527.133 77.0088 527.133 75.4736C527.133 73.9619 527.543 72.7344 528.363 71.791C529.184 70.8477 530.256 70.376 531.58 70.376ZM534.103 74.542C534.038 73.8564 533.889 73.3086 533.654 72.8984C533.221 72.1367 532.497 71.7559 531.483 71.7559C530.757 71.7559 530.147 72.0195 529.655 72.5469C529.163 73.0684 528.902 73.7334 528.873 74.542H534.103ZM543.63 77.0469C543.677 77.5742 543.809 77.9785 544.025 78.2598C544.424 78.7695 545.115 79.0244 546.1 79.0244C546.686 79.0244 547.201 78.8984 547.646 78.6465C548.092 78.3887 548.314 77.9932 548.314 77.46C548.314 77.0557 548.136 76.748 547.778 76.5371C547.55 76.4082 547.099 76.2588 546.425 76.0889L545.168 75.7725C544.365 75.5732 543.773 75.3506 543.393 75.1045C542.713 74.6768 542.373 74.085 542.373 73.3291C542.373 72.4385 542.692 71.7178 543.331 71.167C543.976 70.6162 544.84 70.3408 545.924 70.3408C547.342 70.3408 548.364 70.7568 548.991 71.5889C549.384 72.1162 549.574 72.6846 549.562 73.2939H548.068C548.039 72.9365 547.913 72.6113 547.69 72.3184C547.327 71.9023 546.697 71.6943 545.801 71.6943C545.203 71.6943 544.749 71.8086 544.438 72.0371C544.134 72.2656 543.981 72.5674 543.981 72.9424C543.981 73.3525 544.184 73.6807 544.588 73.9268C544.822 74.0732 545.168 74.2021 545.625 74.3135L546.671 74.5684C547.808 74.8438 548.569 75.1104 548.956 75.3682C549.571 75.7725 549.879 76.4082 549.879 77.2754C549.879 78.1133 549.56 78.8369 548.921 79.4463C548.288 80.0557 547.321 80.3604 546.021 80.3604C544.62 80.3604 543.627 80.0439 543.041 79.4111C542.461 78.7725 542.15 77.9844 542.109 77.0469H543.63ZM555.609 70.376C556.277 70.376 556.925 70.5342 557.552 70.8506C558.179 71.1611 558.656 71.5654 558.984 72.0635C559.301 72.5381 559.512 73.0918 559.617 73.7246C559.711 74.1582 559.758 74.8496 559.758 75.7988H552.858C552.888 76.7539 553.113 77.5215 553.535 78.1016C553.957 78.6758 554.61 78.9629 555.495 78.9629C556.321 78.9629 556.98 78.6904 557.473 78.1455C557.754 77.8291 557.953 77.4629 558.07 77.0469H559.626C559.585 77.3926 559.447 77.7793 559.213 78.207C558.984 78.6289 558.727 78.9746 558.439 79.2441C557.959 79.7129 557.364 80.0293 556.655 80.1934C556.274 80.2871 555.844 80.334 555.363 80.334C554.191 80.334 553.198 79.9092 552.384 79.0596C551.569 78.2041 551.162 77.0088 551.162 75.4736C551.162 73.9619 551.572 72.7344 552.393 71.791C553.213 70.8477 554.285 70.376 555.609 70.376ZM558.132 74.542C558.067 73.8564 557.918 73.3086 557.684 72.8984C557.25 72.1367 556.526 71.7559 555.513 71.7559C554.786 71.7559 554.177 72.0195 553.685 72.5469C553.192 73.0684 552.932 73.7334 552.902 74.542H558.132ZM561.709 70.5869H563.212V71.9229C563.657 71.3721 564.129 70.9766 564.627 70.7363C565.125 70.4961 565.679 70.376 566.288 70.376C567.624 70.376 568.526 70.8418 568.995 71.7734C569.253 72.2832 569.382 73.0127 569.382 73.9619V80H567.773V74.0674C567.773 73.4932 567.688 73.0303 567.519 72.6787C567.237 72.0928 566.728 71.7998 565.989 71.7998C565.614 71.7998 565.307 71.8379 565.066 71.9141C564.633 72.043 564.252 72.3008 563.924 72.6875C563.66 72.998 563.487 73.3203 563.405 73.6543C563.329 73.9824 563.291 74.4541 563.291 75.0693V80H561.709V70.5869ZM575.648 70.376C576.316 70.376 576.964 70.5342 577.591 70.8506C578.218 71.1611 578.695 71.5654 579.023 72.0635C579.34 72.5381 579.551 73.0918 579.656 73.7246C579.75 74.1582 579.797 74.8496 579.797 75.7988H572.897C572.927 76.7539 573.152 77.5215 573.574 78.1016C573.996 78.6758 574.649 78.9629 575.534 78.9629C576.36 78.9629 577.02 78.6904 577.512 78.1455C577.793 77.8291 577.992 77.4629 578.109 77.0469H579.665C579.624 77.3926 579.486 77.7793 579.252 78.207C579.023 78.6289 578.766 78.9746 578.479 79.2441C577.998 79.7129 577.403 80.0293 576.694 80.1934C576.313 80.2871 575.883 80.334 575.402 80.334C574.23 80.334 573.237 79.9092 572.423 79.0596C571.608 78.2041 571.201 77.0088 571.201 75.4736C571.201 73.9619 571.611 72.7344 572.432 71.791C573.252 70.8477 574.324 70.376 575.648 70.376ZM578.171 74.542C578.106 73.8564 577.957 73.3086 577.723 72.8984C577.289 72.1367 576.565 71.7559 575.552 71.7559C574.825 71.7559 574.216 72.0195 573.724 72.5469C573.231 73.0684 572.971 73.7334 572.941 74.542H578.171ZM582.688 77.0469C582.735 77.5742 582.867 77.9785 583.084 78.2598C583.482 78.7695 584.174 79.0244 585.158 79.0244C585.744 79.0244 586.26 78.8984 586.705 78.6465C587.15 78.3887 587.373 77.9932 587.373 77.46C587.373 77.0557 587.194 76.748 586.837 76.5371C586.608 76.4082 586.157 76.2588 585.483 76.0889L584.227 75.7725C583.424 75.5732 582.832 75.3506 582.451 75.1045C581.771 74.6768 581.432 74.085 581.432 73.3291C581.432 72.4385 581.751 71.7178 582.39 71.167C583.034 70.6162 583.898 70.3408 584.982 70.3408C586.4 70.3408 587.423 70.7568 588.05 71.5889C588.442 72.1162 588.633 72.6846 588.621 73.2939H587.127C587.098 72.9365 586.972 72.6113 586.749 72.3184C586.386 71.9023 585.756 71.6943 584.859 71.6943C584.262 71.6943 583.808 71.8086 583.497 72.0371C583.192 72.2656 583.04 72.5674 583.04 72.9424C583.04 73.3525 583.242 73.6807 583.646 73.9268C583.881 74.0732 584.227 74.2021 584.684 74.3135L585.729 74.5684C586.866 74.8438 587.628 75.1104 588.015 75.3682C588.63 75.7725 588.938 76.4082 588.938 77.2754C588.938 78.1133 588.618 78.8369 587.979 79.4463C587.347 80.0557 586.38 80.3604 585.079 80.3604C583.679 80.3604 582.686 80.0439 582.1 79.4111C581.52 78.7725 581.209 77.9844 581.168 77.0469H582.688ZM591.064 67.959H592.664V70.5869H594.167V71.8789H592.664V78.0225C592.664 78.3506 592.775 78.5703 592.998 78.6816C593.121 78.7461 593.326 78.7783 593.613 78.7783C593.689 78.7783 593.771 78.7783 593.859 78.7783C593.947 78.7725 594.05 78.7637 594.167 78.752V80C593.985 80.0527 593.795 80.0908 593.596 80.1143C593.402 80.1377 593.191 80.1494 592.963 80.1494C592.225 80.1494 591.724 79.9619 591.46 79.5869C591.196 79.2061 591.064 78.7139 591.064 78.1104V71.8789H589.79V70.5869H591.064V67.959ZM599.678 70.376C600.346 70.376 600.993 70.5342 601.62 70.8506C602.247 71.1611 602.725 71.5654 603.053 72.0635C603.369 72.5381 603.58 73.0918 603.686 73.7246C603.779 74.1582 603.826 74.8496 603.826 75.7988H596.927C596.956 76.7539 597.182 77.5215 597.604 78.1016C598.025 78.6758 598.679 78.9629 599.563 78.9629C600.39 78.9629 601.049 78.6904 601.541 78.1455C601.822 77.8291 602.021 77.4629 602.139 77.0469H603.694C603.653 77.3926 603.516 77.7793 603.281 78.207C603.053 78.6289 602.795 78.9746 602.508 79.2441C602.027 79.7129 601.433 80.0293 600.724 80.1934C600.343 80.2871 599.912 80.334 599.432 80.334C598.26 80.334 597.267 79.9092 596.452 79.0596C595.638 78.2041 595.23 77.0088 595.23 75.4736C595.23 73.9619 595.641 72.7344 596.461 71.791C597.281 70.8477 598.354 70.376 599.678 70.376ZM602.2 74.542C602.136 73.8564 601.986 73.3086 601.752 72.8984C601.318 72.1367 600.595 71.7559 599.581 71.7559C598.854 71.7559 598.245 72.0195 597.753 72.5469C597.261 73.0684 597 73.7334 596.971 74.542H602.2ZM611.35 71.0879V69.875C612.492 69.7637 613.289 69.5791 613.74 69.3213C614.191 69.0576 614.528 68.4395 614.751 67.4668H615.999V80H614.312V71.0879H611.35ZM620.209 80C620.268 78.916 620.49 77.9727 620.877 77.1699C621.27 76.3672 622.031 75.6377 623.162 74.9814L624.85 74.0059C625.605 73.5664 626.136 73.1914 626.44 72.8809C626.921 72.3945 627.161 71.8379 627.161 71.2109C627.161 70.4785 626.941 69.8984 626.502 69.4707C626.062 69.0371 625.477 68.8203 624.744 68.8203C623.66 68.8203 622.91 69.2305 622.494 70.0508C622.271 70.4902 622.148 71.0996 622.125 71.8789H620.517C620.534 70.7832 620.736 69.8896 621.123 69.1982C621.809 67.9795 623.019 67.3701 624.753 67.3701C626.194 67.3701 627.246 67.7598 627.908 68.5391C628.576 69.3184 628.91 70.1855 628.91 71.1406C628.91 72.1484 628.556 73.0098 627.847 73.7246C627.437 74.1406 626.701 74.6445 625.641 75.2363L624.437 75.9043C623.862 76.2207 623.411 76.5225 623.083 76.8096C622.497 77.3193 622.128 77.8848 621.976 78.5059H628.849V80H620.209ZM635.836 70.5869H637.4V71.9229C637.775 71.46 638.115 71.123 638.42 70.9121C638.941 70.5547 639.533 70.376 640.195 70.376C640.945 70.376 641.549 70.5605 642.006 70.9297C642.264 71.1406 642.498 71.4512 642.709 71.8613C643.061 71.3574 643.474 70.9854 643.948 70.7451C644.423 70.499 644.956 70.376 645.548 70.376C646.813 70.376 647.675 70.833 648.132 71.7471C648.378 72.2393 648.501 72.9014 648.501 73.7334V80H646.857V73.4609C646.857 72.834 646.699 72.4033 646.383 72.1689C646.072 71.9346 645.691 71.8174 645.24 71.8174C644.619 71.8174 644.083 72.0254 643.632 72.4414C643.187 72.8574 642.964 73.5518 642.964 74.5244V80H641.355V73.8564C641.355 73.2178 641.279 72.752 641.127 72.459C640.887 72.0195 640.438 71.7998 639.782 71.7998C639.185 71.7998 638.64 72.0312 638.147 72.4941C637.661 72.957 637.418 73.7949 637.418 75.0078V80H635.836V70.5869ZM652.043 77.4951C652.043 77.9521 652.21 78.3125 652.544 78.5762C652.878 78.8398 653.273 78.9717 653.73 78.9717C654.287 78.9717 654.826 78.8428 655.348 78.585C656.227 78.1572 656.666 77.457 656.666 76.4844V75.21C656.473 75.333 656.224 75.4355 655.919 75.5176C655.614 75.5996 655.315 75.6582 655.022 75.6934L654.064 75.8164C653.49 75.8926 653.06 76.0127 652.772 76.1768C652.286 76.4521 652.043 76.8916 652.043 77.4951ZM655.875 74.2959C656.238 74.249 656.481 74.0967 656.604 73.8389C656.675 73.6982 656.71 73.4961 656.71 73.2324C656.71 72.6934 656.517 72.3037 656.13 72.0635C655.749 71.8174 655.201 71.6943 654.486 71.6943C653.66 71.6943 653.074 71.917 652.729 72.3623C652.535 72.6084 652.409 72.9746 652.351 73.4609H650.874C650.903 72.3008 651.278 71.4951 651.999 71.0439C652.726 70.5869 653.566 70.3584 654.521 70.3584C655.629 70.3584 656.528 70.5693 657.22 70.9912C657.905 71.4131 658.248 72.0693 658.248 72.96V78.3828C658.248 78.5469 658.28 78.6787 658.345 78.7783C658.415 78.8779 658.559 78.9277 658.775 78.9277C658.846 78.9277 658.925 78.9248 659.013 78.9189C659.101 78.9072 659.194 78.8926 659.294 78.875V80.0439C659.048 80.1143 658.86 80.1582 658.731 80.1758C658.603 80.1934 658.427 80.2021 658.204 80.2021C657.659 80.2021 657.264 80.0088 657.018 79.6221C656.889 79.417 656.798 79.127 656.745 78.752C656.423 79.1738 655.96 79.54 655.356 79.8506C654.753 80.1611 654.088 80.3164 653.361 80.3164C652.488 80.3164 651.773 80.0527 651.217 79.5254C650.666 78.9922 650.391 78.3271 650.391 77.5303C650.391 76.6572 650.663 75.9805 651.208 75.5C651.753 75.0195 652.468 74.7236 653.353 74.6123L655.875 74.2959ZM654.776 68.6533C655.081 68.6533 655.342 68.5449 655.559 68.3281C655.775 68.1113 655.884 67.8506 655.884 67.5459C655.884 67.2412 655.775 66.9805 655.559 66.7637C655.342 66.5469 655.081 66.4385 654.776 66.4385C654.478 66.4385 654.22 66.5469 654.003 66.7637C653.786 66.9805 653.678 67.2412 653.678 67.5459C653.678 67.8506 653.786 68.1113 654.003 68.3281C654.22 68.5449 654.478 68.6533 654.776 68.6533ZM654.776 65.709C655.28 65.709 655.711 65.8906 656.068 66.2539C656.432 66.6113 656.613 67.042 656.613 67.5459C656.613 68.0498 656.432 68.4834 656.068 68.8467C655.711 69.2041 655.28 69.3828 654.776 69.3828C654.272 69.3828 653.842 69.2041 653.484 68.8467C653.127 68.4834 652.948 68.0498 652.948 67.5459C652.948 67.042 653.127 66.6113 653.484 66.2539C653.842 65.8906 654.272 65.709 654.776 65.709ZM660.85 70.5869H662.353V71.9229C662.798 71.3721 663.27 70.9766 663.768 70.7363C664.266 70.4961 664.819 70.376 665.429 70.376C666.765 70.376 667.667 70.8418 668.136 71.7734C668.394 72.2832 668.522 73.0127 668.522 73.9619V80H666.914V74.0674C666.914 73.4932 666.829 73.0303 666.659 72.6787C666.378 72.0928 665.868 71.7998 665.13 71.7998C664.755 71.7998 664.447 71.8379 664.207 71.9141C663.773 72.043 663.393 72.3008 663.064 72.6875C662.801 72.998 662.628 73.3203 662.546 73.6543C662.47 73.9824 662.432 74.4541 662.432 75.0693V80H660.85V70.5869ZM674.789 70.376C675.457 70.376 676.104 70.5342 676.731 70.8506C677.358 71.1611 677.836 71.5654 678.164 72.0635C678.48 72.5381 678.691 73.0918 678.797 73.7246C678.891 74.1582 678.938 74.8496 678.938 75.7988H672.038C672.067 76.7539 672.293 77.5215 672.715 78.1016C673.137 78.6758 673.79 78.9629 674.675 78.9629C675.501 78.9629 676.16 78.6904 676.652 78.1455C676.934 77.8291 677.133 77.4629 677.25 77.0469H678.806C678.765 77.3926 678.627 77.7793 678.393 78.207C678.164 78.6289 677.906 78.9746 677.619 79.2441C677.139 79.7129 676.544 80.0293 675.835 80.1934C675.454 80.2871 675.023 80.334 674.543 80.334C673.371 80.334 672.378 79.9092 671.563 79.0596C670.749 78.2041 670.342 77.0088 670.342 75.4736C670.342 73.9619 670.752 72.7344 671.572 71.791C672.393 70.8477 673.465 70.376 674.789 70.376ZM677.312 74.542C677.247 73.8564 677.098 73.3086 676.863 72.8984C676.43 72.1367 675.706 71.7559 674.692 71.7559C673.966 71.7559 673.356 72.0195 672.864 72.5469C672.372 73.0684 672.111 73.7334 672.082 74.542H677.312ZM681.891 75.4033C681.891 76.4111 682.104 77.2549 682.532 77.9346C682.96 78.6143 683.646 78.9541 684.589 78.9541C685.321 78.9541 685.922 78.6406 686.391 78.0137C686.865 77.3809 687.103 76.4756 687.103 75.2979C687.103 74.1084 686.859 73.2295 686.373 72.6611C685.887 72.0869 685.286 71.7998 684.571 71.7998C683.774 71.7998 683.127 72.1045 682.629 72.7139C682.137 73.3232 681.891 74.2197 681.891 75.4033ZM684.272 70.4199C684.993 70.4199 685.597 70.5723 686.083 70.877C686.364 71.0527 686.684 71.3604 687.041 71.7998V67.0449H688.562V80H687.138V78.6904C686.769 79.2705 686.332 79.6895 685.828 79.9473C685.324 80.2051 684.747 80.334 684.097 80.334C683.048 80.334 682.14 79.8945 681.372 79.0156C680.604 78.1309 680.221 76.9561 680.221 75.4912C680.221 74.1201 680.569 72.9336 681.267 71.9316C681.97 70.9238 682.972 70.4199 684.272 70.4199ZM694.828 70.376C695.496 70.376 696.144 70.5342 696.771 70.8506C697.397 71.1611 697.875 71.5654 698.203 72.0635C698.52 72.5381 698.73 73.0918 698.836 73.7246C698.93 74.1582 698.977 74.8496 698.977 75.7988H692.077C692.106 76.7539 692.332 77.5215 692.754 78.1016C693.176 78.6758 693.829 78.9629 694.714 78.9629C695.54 78.9629 696.199 78.6904 696.691 78.1455C696.973 77.8291 697.172 77.4629 697.289 77.0469H698.845C698.804 77.3926 698.666 77.7793 698.432 78.207C698.203 78.6289 697.945 78.9746 697.658 79.2441C697.178 79.7129 696.583 80.0293 695.874 80.1934C695.493 80.2871 695.062 80.334 694.582 80.334C693.41 80.334 692.417 79.9092 691.603 79.0596C690.788 78.2041 690.381 77.0088 690.381 75.4736C690.381 73.9619 690.791 72.7344 691.611 71.791C692.432 70.8477 693.504 70.376 694.828 70.376ZM697.351 74.542C697.286 73.8564 697.137 73.3086 696.902 72.8984C696.469 72.1367 695.745 71.7559 694.731 71.7559C694.005 71.7559 693.396 72.0195 692.903 72.5469C692.411 73.0684 692.15 73.7334 692.121 74.542H697.351ZM700.972 70.5869H702.475V72.2129C702.598 71.8965 702.899 71.5127 703.38 71.0615C703.86 70.6045 704.414 70.376 705.041 70.376C705.07 70.376 705.12 70.3789 705.19 70.3848C705.261 70.3906 705.381 70.4023 705.551 70.4199V72.0898C705.457 72.0723 705.369 72.0605 705.287 72.0547C705.211 72.0488 705.126 72.0459 705.032 72.0459C704.235 72.0459 703.623 72.3037 703.195 72.8193C702.768 73.3291 702.554 73.918 702.554 74.5859V80H700.972V70.5869Z" fill="black"/>
<path d="M338.426 32H330.984V14.7266H338.426C339.496 14.7422 340.387 14.8672 341.098 15.1016C342.309 15.5 343.289 16.2305 344.039 17.293C344.641 18.1523 345.051 19.082 345.27 20.082C345.488 21.082 345.598 22.0352 345.598 22.9414C345.598 25.2383 345.137 27.1836 344.215 28.7773C342.965 30.9258 341.035 32 338.426 32ZM341.109 19.1328C340.555 18.1953 339.457 17.7266 337.816 17.7266H334.488V29H337.816C339.52 29 340.707 28.1602 341.379 26.4805C341.746 25.5586 341.93 24.4609 341.93 23.1875C341.93 21.4297 341.656 20.0781 341.109 19.1328ZM348.539 20.6094C349.422 19.4844 350.938 18.9219 353.086 18.9219C354.484 18.9219 355.727 19.1992 356.812 19.7539C357.898 20.3086 358.441 21.3555 358.441 22.8945V28.7539C358.441 29.1602 358.449 29.6523 358.465 30.2305C358.488 30.668 358.555 30.9648 358.664 31.1211C358.773 31.2773 358.938 31.4062 359.156 31.5078V32H355.523C355.422 31.7422 355.352 31.5 355.312 31.2734C355.273 31.0469 355.242 30.7891 355.219 30.5C354.758 31 354.227 31.4258 353.625 31.7773C352.906 32.1914 352.094 32.3984 351.188 32.3984C350.031 32.3984 349.074 32.0703 348.316 31.4141C347.566 30.75 347.191 29.8125 347.191 28.6016C347.191 27.0312 347.797 25.8945 349.008 25.1914C349.672 24.8086 350.648 24.5352 351.938 24.3711L353.074 24.2305C353.691 24.1523 354.133 24.0547 354.398 23.9375C354.875 23.7344 355.113 23.418 355.113 22.9883C355.113 22.4648 354.93 22.1055 354.562 21.9102C354.203 21.707 353.672 21.6055 352.969 21.6055C352.18 21.6055 351.621 21.8008 351.293 22.1914C351.059 22.4805 350.902 22.8711 350.824 23.3633H347.602C347.672 22.2461 347.984 21.3281 348.539 20.6094ZM351.023 29.5859C351.336 29.8438 351.719 29.9727 352.172 29.9727C352.891 29.9727 353.551 29.7617 354.152 29.3398C354.762 28.918 355.078 28.1484 355.102 27.0312V25.7891C354.891 25.9219 354.676 26.0312 354.457 26.1172C354.246 26.1953 353.953 26.2695 353.578 26.3398L352.828 26.4805C352.125 26.6055 351.621 26.7578 351.316 26.9375C350.801 27.2422 350.543 27.7148 350.543 28.3555C350.543 28.9258 350.703 29.3359 351.023 29.5859ZM367.266 29.6211V32.1172L365.684 32.1758C364.105 32.2305 363.027 31.957 362.449 31.3555C362.074 30.9727 361.887 30.3828 361.887 29.5859V21.7227H360.105V19.3438H361.887V15.7812H365.191V19.3438H367.266V21.7227H365.191V28.4727C365.191 28.9961 365.258 29.3242 365.391 29.457C365.523 29.582 365.93 29.6445 366.609 29.6445C366.711 29.6445 366.816 29.6445 366.926 29.6445C367.043 29.6367 367.156 29.6289 367.266 29.6211ZM369.891 20.6094C370.773 19.4844 372.289 18.9219 374.438 18.9219C375.836 18.9219 377.078 19.1992 378.164 19.7539C379.25 20.3086 379.793 21.3555 379.793 22.8945V28.7539C379.793 29.1602 379.801 29.6523 379.816 30.2305C379.84 30.668 379.906 30.9648 380.016 31.1211C380.125 31.2773 380.289 31.4062 380.508 31.5078V32H376.875C376.773 31.7422 376.703 31.5 376.664 31.2734C376.625 31.0469 376.594 30.7891 376.57 30.5C376.109 31 375.578 31.4258 374.977 31.7773C374.258 32.1914 373.445 32.3984 372.539 32.3984C371.383 32.3984 370.426 32.0703 369.668 31.4141C368.918 30.75 368.543 29.8125 368.543 28.6016C368.543 27.0312 369.148 25.8945 370.359 25.1914C371.023 24.8086 372 24.5352 373.289 24.3711L374.426 24.2305C375.043 24.1523 375.484 24.0547 375.75 23.9375C376.227 23.7344 376.465 23.418 376.465 22.9883C376.465 22.4648 376.281 22.1055 375.914 21.9102C375.555 21.707 375.023 21.6055 374.32 21.6055C373.531 21.6055 372.973 21.8008 372.645 22.1914C372.41 22.4805 372.254 22.8711 372.176 23.3633H368.953C369.023 22.2461 369.336 21.3281 369.891 20.6094ZM372.375 29.5859C372.688 29.8438 373.07 29.9727 373.523 29.9727C374.242 29.9727 374.902 29.7617 375.504 29.3398C376.113 28.918 376.43 28.1484 376.453 27.0312V25.7891C376.242 25.9219 376.027 26.0312 375.809 26.1172C375.598 26.1953 375.305 26.2695 374.93 26.3398L374.18 26.4805C373.477 26.6055 372.973 26.7578 372.668 26.9375C372.152 27.2422 371.895 27.7148 371.895 28.3555C371.895 28.9258 372.055 29.3359 372.375 29.5859ZM392.883 19.2266V32H389.496V19.2266H392.883ZM392.883 14.6211V17.7031H389.496V14.6211H392.883ZM402.141 21.6992C401.008 21.6992 400.23 22.1797 399.809 23.1406C399.59 23.6484 399.48 24.2969 399.48 25.0859V32H396.152V19.25H399.375V21.1133C399.805 20.457 400.211 19.9844 400.594 19.6953C401.281 19.1797 402.152 18.9219 403.207 18.9219C404.527 18.9219 405.605 19.2695 406.441 19.9648C407.285 20.6523 407.707 21.7969 407.707 23.3984V32H404.285V24.2305C404.285 23.5586 404.195 23.043 404.016 22.6836C403.688 22.0273 403.062 21.6992 402.141 21.6992ZM422.426 14.75V32H419.18V30.2305C418.703 30.9883 418.16 31.5391 417.551 31.8828C416.941 32.2266 416.184 32.3984 415.277 32.3984C413.785 32.3984 412.527 31.7969 411.504 30.5938C410.488 29.3828 409.98 27.832 409.98 25.9414C409.98 23.7617 410.48 22.0469 411.48 20.7969C412.488 19.5469 413.832 18.9219 415.512 18.9219C416.285 18.9219 416.973 19.0938 417.574 19.4375C418.176 19.7734 418.664 20.2422 419.039 20.8438V14.75H422.426ZM413.426 25.6953C413.426 26.875 413.66 27.8164 414.129 28.5195C414.59 29.2305 415.293 29.5859 416.238 29.5859C417.184 29.5859 417.902 29.2344 418.395 28.5312C418.887 27.8281 419.133 26.918 419.133 25.8008C419.133 24.2383 418.738 23.1211 417.949 22.4492C417.465 22.043 416.902 21.8398 416.262 21.8398C415.285 21.8398 414.566 22.2109 414.105 22.9531C413.652 23.6875 413.426 24.6016 413.426 25.6953ZM434.273 19.8125C435.273 20.4531 435.848 21.5547 435.996 23.1172H432.656C432.609 22.6875 432.488 22.3477 432.293 22.0977C431.926 21.6445 431.301 21.418 430.418 21.418C429.691 21.418 429.172 21.5312 428.859 21.7578C428.555 21.9844 428.402 22.25 428.402 22.5547C428.402 22.9375 428.566 23.2148 428.895 23.3867C429.223 23.5664 430.383 23.875 432.375 24.3125C433.703 24.625 434.699 25.0977 435.363 25.7305C436.02 26.3711 436.348 27.1719 436.348 28.1328C436.348 29.3984 435.875 30.4336 434.93 31.2383C433.992 32.0352 432.539 32.4336 430.57 32.4336C428.562 32.4336 427.078 32.0117 426.117 31.168C425.164 30.3164 424.688 29.2344 424.688 27.9219H428.074C428.145 28.5156 428.297 28.9375 428.531 29.1875C428.945 29.6328 429.711 29.8555 430.828 29.8555C431.484 29.8555 432.004 29.7578 432.387 29.5625C432.777 29.3672 432.973 29.0742 432.973 28.6836C432.973 28.3086 432.816 28.0234 432.504 27.8281C432.191 27.6328 431.031 27.2969 429.023 26.8203C427.578 26.4609 426.559 26.0117 425.965 25.4727C425.371 24.9414 425.074 24.1758 425.074 23.1758C425.074 21.9961 425.535 20.9844 426.457 20.1406C427.387 19.2891 428.691 18.8633 430.371 18.8633C431.965 18.8633 433.266 19.1797 434.273 19.8125ZM439.312 20.6094C440.195 19.4844 441.711 18.9219 443.859 18.9219C445.258 18.9219 446.5 19.1992 447.586 19.7539C448.672 20.3086 449.215 21.3555 449.215 22.8945V28.7539C449.215 29.1602 449.223 29.6523 449.238 30.2305C449.262 30.668 449.328 30.9648 449.438 31.1211C449.547 31.2773 449.711 31.4062 449.93 31.5078V32H446.297C446.195 31.7422 446.125 31.5 446.086 31.2734C446.047 31.0469 446.016 30.7891 445.992 30.5C445.531 31 445 31.4258 444.398 31.7773C443.68 32.1914 442.867 32.3984 441.961 32.3984C440.805 32.3984 439.848 32.0703 439.09 31.4141C438.34 30.75 437.965 29.8125 437.965 28.6016C437.965 27.0312 438.57 25.8945 439.781 25.1914C440.445 24.8086 441.422 24.5352 442.711 24.3711L443.848 24.2305C444.465 24.1523 444.906 24.0547 445.172 23.9375C445.648 23.7344 445.887 23.418 445.887 22.9883C445.887 22.4648 445.703 22.1055 445.336 21.9102C444.977 21.707 444.445 21.6055 443.742 21.6055C442.953 21.6055 442.395 21.8008 442.066 22.1914C441.832 22.4805 441.676 22.8711 441.598 23.3633H438.375C438.445 22.2461 438.758 21.3281 439.312 20.6094ZM441.797 29.5859C442.109 29.8438 442.492 29.9727 442.945 29.9727C443.664 29.9727 444.324 29.7617 444.926 29.3398C445.535 28.918 445.852 28.1484 445.875 27.0312V25.7891C445.664 25.9219 445.449 26.0312 445.23 26.1172C445.02 26.1953 444.727 26.2695 444.352 26.3398L443.602 26.4805C442.898 26.6055 442.395 26.7578 442.09 26.9375C441.574 27.2422 441.316 27.7148 441.316 28.3555C441.316 28.9258 441.477 29.3359 441.797 29.5859ZM459.363 22.7422C459.082 22.125 458.531 21.8164 457.711 21.8164C456.758 21.8164 456.117 22.125 455.789 22.7422C455.609 23.0938 455.52 23.6172 455.52 24.3125V32H452.133V19.25H455.379V21.1133C455.793 20.4492 456.184 19.9766 456.551 19.6953C457.199 19.1953 458.039 18.9453 459.07 18.9453C460.047 18.9453 460.836 19.1602 461.438 19.5898C461.922 19.9883 462.289 20.5 462.539 21.125C462.977 20.375 463.52 19.8242 464.168 19.4727C464.855 19.1211 465.621 18.9453 466.465 18.9453C467.027 18.9453 467.582 19.0547 468.129 19.2734C468.676 19.4922 469.172 19.875 469.617 20.4219C469.977 20.8672 470.219 21.4141 470.344 22.0625C470.422 22.4922 470.461 23.1211 470.461 23.9492L470.438 32H467.016V23.8672C467.016 23.3828 466.938 22.9844 466.781 22.6719C466.484 22.0781 465.938 21.7812 465.141 21.7812C464.219 21.7812 463.582 22.1641 463.23 22.9297C463.051 23.3359 462.961 23.8242 462.961 24.3945V32H459.598V24.3945C459.598 23.6367 459.52 23.0859 459.363 22.7422ZM473.613 14.7266H476.953V32H473.613V14.7266ZM491.156 28.25C491.07 29.0078 490.676 29.7773 489.973 30.5586C488.879 31.8008 487.348 32.4219 485.379 32.4219C483.754 32.4219 482.32 31.8984 481.078 30.8516C479.836 29.8047 479.215 28.1016 479.215 25.7422C479.215 23.5312 479.773 21.8359 480.891 20.6562C482.016 19.4766 483.473 18.8867 485.262 18.8867C486.324 18.8867 487.281 19.0859 488.133 19.4844C488.984 19.8828 489.688 20.5117 490.242 21.3711C490.742 22.1289 491.066 23.0078 491.215 24.0078C491.301 24.5938 491.336 25.4375 491.32 26.5391H482.578C482.625 27.8203 483.027 28.7188 483.785 29.2344C484.246 29.5547 484.801 29.7148 485.449 29.7148C486.137 29.7148 486.695 29.5195 487.125 29.1289C487.359 28.918 487.566 28.625 487.746 28.25H491.156ZM487.852 24.3359C487.797 23.4531 487.527 22.7852 487.043 22.332C486.566 21.8711 485.973 21.6406 485.262 21.6406C484.488 21.6406 483.887 21.8828 483.457 22.3672C483.035 22.8516 482.77 23.5078 482.66 24.3359H487.852ZM499.43 29.6211V32.1172L497.848 32.1758C496.27 32.2305 495.191 31.957 494.613 31.3555C494.238 30.9727 494.051 30.3828 494.051 29.5859V21.7227H492.27V19.3438H494.051V15.7812H497.355V19.3438H499.43V21.7227H497.355V28.4727C497.355 28.9961 497.422 29.3242 497.555 29.457C497.688 29.582 498.094 29.6445 498.773 29.6445C498.875 29.6445 498.98 29.6445 499.09 29.6445C499.207 29.6367 499.32 29.6289 499.43 29.6211ZM508.734 20.6094C509.617 19.4844 511.133 18.9219 513.281 18.9219C514.68 18.9219 515.922 19.1992 517.008 19.7539C518.094 20.3086 518.637 21.3555 518.637 22.8945V28.7539C518.637 29.1602 518.645 29.6523 518.66 30.2305C518.684 30.668 518.75 30.9648 518.859 31.1211C518.969 31.2773 519.133 31.4062 519.352 31.5078V32H515.719C515.617 31.7422 515.547 31.5 515.508 31.2734C515.469 31.0469 515.438 30.7891 515.414 30.5C514.953 31 514.422 31.4258 513.82 31.7773C513.102 32.1914 512.289 32.3984 511.383 32.3984C510.227 32.3984 509.27 32.0703 508.512 31.4141C507.762 30.75 507.387 29.8125 507.387 28.6016C507.387 27.0312 507.992 25.8945 509.203 25.1914C509.867 24.8086 510.844 24.5352 512.133 24.3711L513.27 24.2305C513.887 24.1523 514.328 24.0547 514.594 23.9375C515.07 23.7344 515.309 23.418 515.309 22.9883C515.309 22.4648 515.125 22.1055 514.758 21.9102C514.398 21.707 513.867 21.6055 513.164 21.6055C512.375 21.6055 511.816 21.8008 511.488 22.1914C511.254 22.4805 511.098 22.8711 511.02 23.3633H507.797C507.867 22.2461 508.18 21.3281 508.734 20.6094ZM511.219 29.5859C511.531 29.8438 511.914 29.9727 512.367 29.9727C513.086 29.9727 513.746 29.7617 514.348 29.3398C514.957 28.918 515.273 28.1484 515.297 27.0312V25.7891C515.086 25.9219 514.871 26.0312 514.652 26.1172C514.441 26.1953 514.148 26.2695 513.773 26.3398L513.023 26.4805C512.32 26.6055 511.816 26.7578 511.512 26.9375C510.996 27.2422 510.738 27.7148 510.738 28.3555C510.738 28.9258 510.898 29.3359 511.219 29.5859ZM527.602 14.6211V17.3398C527.414 17.3164 527.098 17.3008 526.652 17.293C526.215 17.2773 525.91 17.375 525.738 17.5859C525.574 17.7891 525.492 18.0156 525.492 18.2656V19.3438H527.684V21.6992H525.492V32H522.164V21.6992H520.301V19.3438H522.129V18.5234C522.129 17.1562 522.359 16.2148 522.82 15.6992C523.305 14.9336 524.473 14.5508 526.324 14.5508C526.535 14.5508 526.727 14.5586 526.898 14.5742C527.07 14.582 527.305 14.5977 527.602 14.6211ZM547.219 28.25C547.133 29.0078 546.738 29.7773 546.035 30.5586C544.941 31.8008 543.41 32.4219 541.441 32.4219C539.816 32.4219 538.383 31.8984 537.141 30.8516C535.898 29.8047 535.277 28.1016 535.277 25.7422C535.277 23.5312 535.836 21.8359 536.953 20.6562C538.078 19.4766 539.535 18.8867 541.324 18.8867C542.387 18.8867 543.344 19.0859 544.195 19.4844C545.047 19.8828 545.75 20.5117 546.305 21.3711C546.805 22.1289 547.129 23.0078 547.277 24.0078C547.363 24.5938 547.398 25.4375 547.383 26.5391H538.641C538.688 27.8203 539.09 28.7188 539.848 29.2344C540.309 29.5547 540.863 29.7148 541.512 29.7148C542.199 29.7148 542.758 29.5195 543.188 29.1289C543.422 28.918 543.629 28.625 543.809 28.25H547.219ZM543.914 24.3359C543.859 23.4531 543.59 22.7852 543.105 22.332C542.629 21.8711 542.035 21.6406 541.324 21.6406C540.551 21.6406 539.949 21.8828 539.52 22.3672C539.098 22.8516 538.832 23.5078 538.723 24.3359H543.914ZM548.637 23.7266H555.363V26.8906H548.637V23.7266ZM564.809 22.7422C564.527 22.125 563.977 21.8164 563.156 21.8164C562.203 21.8164 561.562 22.125 561.234 22.7422C561.055 23.0938 560.965 23.6172 560.965 24.3125V32H557.578V19.25H560.824V21.1133C561.238 20.4492 561.629 19.9766 561.996 19.6953C562.645 19.1953 563.484 18.9453 564.516 18.9453C565.492 18.9453 566.281 19.1602 566.883 19.5898C567.367 19.9883 567.734 20.5 567.984 21.125C568.422 20.375 568.965 19.8242 569.613 19.4727C570.301 19.1211 571.066 18.9453 571.91 18.9453C572.473 18.9453 573.027 19.0547 573.574 19.2734C574.121 19.4922 574.617 19.875 575.062 20.4219C575.422 20.8672 575.664 21.4141 575.789 22.0625C575.867 22.4922 575.906 23.1211 575.906 23.9492L575.883 32H572.461V23.8672C572.461 23.3828 572.383 22.9844 572.227 22.6719C571.93 22.0781 571.383 21.7812 570.586 21.7812C569.664 21.7812 569.027 22.1641 568.676 22.9297C568.496 23.3359 568.406 23.8242 568.406 24.3945V32H565.043V24.3945C565.043 23.6367 564.965 23.0859 564.809 22.7422ZM582.562 32.4336C580.984 32.4336 579.844 32.0508 579.141 31.2852C578.438 30.5195 578.086 29.6055 578.086 28.543C578.086 27.0977 578.621 26.043 579.691 25.3789C580.285 25.0195 581.188 24.7461 582.398 24.5586L584.449 24.2539C584.98 24.1758 585.367 24.0703 585.609 23.9375C585.984 23.7344 586.172 23.4297 586.172 23.0234C586.172 22.4062 585.859 21.9844 585.234 21.7578C584.898 21.6406 584.449 21.582 583.887 21.582C583.027 21.582 582.43 21.8242 582.094 22.3086C581.914 22.5664 581.812 22.9297 581.789 23.3984H578.531C578.617 21.6406 579.348 20.3984 580.723 19.6719C581.637 19.1875 582.801 18.9453 584.215 18.9453C585.223 18.9453 586.113 19.1172 586.887 19.4609C587.316 19.6484 587.766 19.9336 588.234 20.3164C588.711 19.9102 589.258 19.582 589.875 19.332C590.492 19.0742 591.207 18.9453 592.02 18.9453C594.613 18.9453 596.367 20.0117 597.281 22.1445C597.766 23.2773 597.988 24.7109 597.949 26.4453H589.207C589.207 27.3281 589.312 28.0039 589.523 28.4727C589.914 29.332 590.664 29.7617 591.773 29.7617C592.398 29.7617 592.941 29.6562 593.402 29.4453C593.863 29.2266 594.203 28.8008 594.422 28.168H597.809C597.715 28.9492 597.328 29.7305 596.648 30.5117C595.531 31.7852 593.945 32.4219 591.891 32.4219C590.836 32.4219 589.93 32.2227 589.172 31.8242C588.422 31.4258 587.84 30.9141 587.426 30.2891C586.848 31.0312 586.152 31.5742 585.34 31.918C584.535 32.2617 583.609 32.4336 582.562 32.4336ZM584.93 29.6328C585.742 29.1797 586.148 28.3594 586.148 27.1719V25.8945C585.984 26.0117 585.836 26.0977 585.703 26.1523C585.57 26.1992 585.273 26.2695 584.812 26.3633L583.535 26.6211C582.801 26.7695 582.309 26.9297 582.059 27.1016C581.637 27.3828 581.426 27.8477 581.426 28.4961C581.426 28.8633 581.562 29.207 581.836 29.5273C582.109 29.8477 582.574 30.0078 583.23 30.0078C583.91 30.0078 584.477 29.8828 584.93 29.6328ZM589.254 24.2891H594.48C594.426 23.4688 594.191 22.8164 593.777 22.332C593.363 21.8398 592.738 21.5938 591.902 21.5938C591.059 21.5938 590.418 21.8164 589.98 22.2617C589.543 22.6992 589.301 23.375 589.254 24.2891ZM606.762 22.3086C605.418 22.3086 604.516 22.7461 604.055 23.6211C603.797 24.1133 603.668 24.8711 603.668 25.8945V32H600.305V19.2266H603.492V21.4531C604.008 20.6016 604.457 20.0195 604.84 19.707C605.465 19.1836 606.277 18.9219 607.277 18.9219C607.34 18.9219 607.391 18.9258 607.43 18.9336C607.477 18.9336 607.574 18.9375 607.723 18.9453V22.3672C607.512 22.3438 607.324 22.3281 607.16 22.3203C606.996 22.3125 606.863 22.3086 606.762 22.3086ZM621.41 32H617.379L614.32 26.5391L612.938 27.9805V32H609.656V14.7852H612.938V24.0898L617.098 19.2852H621.234L616.77 24.1719L621.41 32ZM633.984 28.25C633.898 29.0078 633.504 29.7773 632.801 30.5586C631.707 31.8008 630.176 32.4219 628.207 32.4219C626.582 32.4219 625.148 31.8984 623.906 30.8516C622.664 29.8047 622.043 28.1016 622.043 25.7422C622.043 23.5312 622.602 21.8359 623.719 20.6562C624.844 19.4766 626.301 18.8867 628.09 18.8867C629.152 18.8867 630.109 19.0859 630.961 19.4844C631.812 19.8828 632.516 20.5117 633.07 21.3711C633.57 22.1289 633.895 23.0078 634.043 24.0078C634.129 24.5938 634.164 25.4375 634.148 26.5391H625.406C625.453 27.8203 625.855 28.7188 626.613 29.2344C627.074 29.5547 627.629 29.7148 628.277 29.7148C628.965 29.7148 629.523 29.5195 629.953 29.1289C630.188 28.918 630.395 28.625 630.574 28.25H633.984ZM630.68 24.3359C630.625 23.4531 630.355 22.7852 629.871 22.332C629.395 21.8711 628.801 21.6406 628.09 21.6406C627.316 21.6406 626.715 21.8828 626.285 22.3672C625.863 22.8516 625.598 23.5078 625.488 24.3359H630.68ZM642.258 29.6211V32.1172L640.676 32.1758C639.098 32.2305 638.02 31.957 637.441 31.3555C637.066 30.9727 636.879 30.3828 636.879 29.5859V21.7227H635.098V19.3438H636.879V15.7812H640.184V19.3438H642.258V21.7227H640.184V28.4727C640.184 28.9961 640.25 29.3242 640.383 29.457C640.516 29.582 640.922 29.6445 641.602 29.6445C641.703 29.6445 641.809 29.6445 641.918 29.6445C642.035 29.6367 642.148 29.6289 642.258 29.6211Z" fill="white"/>
<path d="M330.033 106C330.092 104.916 330.314 103.973 330.701 103.17C331.094 102.367 331.855 101.638 332.986 100.981L334.674 100.006C335.43 99.5664 335.96 99.1914 336.265 98.8809C336.745 98.3945 336.985 97.8379 336.985 97.2109C336.985 96.4785 336.766 95.8984 336.326 95.4707C335.887 95.0371 335.301 94.8203 334.568 94.8203C333.484 94.8203 332.734 95.2305 332.318 96.0508C332.096 96.4902 331.973 97.0996 331.949 97.8789H330.341C330.358 96.7832 330.561 95.8896 330.947 95.1982C331.633 93.9795 332.843 93.3701 334.577 93.3701C336.019 93.3701 337.07 93.7598 337.732 94.5391C338.4 95.3184 338.734 96.1855 338.734 97.1406C338.734 98.1484 338.38 99.0098 337.671 99.7246C337.261 100.141 336.525 100.645 335.465 101.236L334.261 101.904C333.687 102.221 333.235 102.522 332.907 102.81C332.321 103.319 331.952 103.885 331.8 104.506H338.673V106H330.033ZM345.44 101.544V95.8398L341.406 101.544H345.44ZM345.467 106V102.924H339.947V101.377L345.713 93.3789H347.049V101.544H348.903V102.924H347.049V106H345.467ZM355.996 93.959H357.596V96.5869H359.099V97.8789H357.596V104.022C357.596 104.351 357.707 104.57 357.93 104.682C358.053 104.746 358.258 104.778 358.545 104.778C358.621 104.778 358.703 104.778 358.791 104.778C358.879 104.772 358.981 104.764 359.099 104.752V106C358.917 106.053 358.727 106.091 358.527 106.114C358.334 106.138 358.123 106.149 357.895 106.149C357.156 106.149 356.655 105.962 356.392 105.587C356.128 105.206 355.996 104.714 355.996 104.11V97.8789H354.722V96.5869H355.996V93.959Z" fill="black"/>
<path d="M637.733 93.3613C639.14 93.3613 640.118 93.7275 640.669 94.46C641.226 95.1865 641.504 95.9365 641.504 96.71H639.939C639.846 96.2119 639.696 95.8223 639.491 95.541C639.11 95.0137 638.533 94.75 637.76 94.75C636.875 94.75 636.172 95.1602 635.65 95.9805C635.129 96.7949 634.839 97.9639 634.78 99.4873C635.144 98.9541 635.601 98.5557 636.151 98.292C636.655 98.0576 637.218 97.9404 637.839 97.9404C638.894 97.9404 639.813 98.2773 640.599 98.9512C641.384 99.625 641.776 100.63 641.776 101.966C641.776 103.108 641.404 104.122 640.66 105.007C639.916 105.886 638.855 106.325 637.479 106.325C636.301 106.325 635.284 105.88 634.429 104.989C633.573 104.093 633.146 102.587 633.146 100.472C633.146 98.9072 633.336 97.5801 633.717 96.4902C634.449 94.4043 635.788 93.3613 637.733 93.3613ZM637.619 104.919C638.451 104.919 639.072 104.641 639.482 104.084C639.898 103.521 640.106 102.859 640.106 102.098C640.106 101.453 639.922 100.841 639.553 100.261C639.184 99.6748 638.513 99.3818 637.54 99.3818C636.86 99.3818 636.263 99.6074 635.747 100.059C635.237 100.51 634.982 101.189 634.982 102.098C634.982 102.895 635.214 103.565 635.677 104.11C636.146 104.649 636.793 104.919 637.619 104.919ZM644.879 102.959C644.926 103.832 645.263 104.436 645.89 104.77C646.212 104.945 646.575 105.033 646.979 105.033C647.735 105.033 648.38 104.72 648.913 104.093C649.446 103.46 649.824 102.18 650.047 100.252C649.695 100.809 649.259 101.201 648.737 101.43C648.222 101.652 647.665 101.764 647.067 101.764C645.854 101.764 644.894 101.386 644.185 100.63C643.481 99.874 643.13 98.9014 643.13 97.7119C643.13 96.5693 643.479 95.5645 644.176 94.6973C644.873 93.8301 645.901 93.3965 647.261 93.3965C649.095 93.3965 650.36 94.2227 651.058 95.875C651.444 96.7832 651.638 97.9199 651.638 99.2852C651.638 100.826 651.406 102.191 650.943 103.381C650.176 105.361 648.875 106.352 647.041 106.352C645.811 106.352 644.876 106.029 644.237 105.385C643.599 104.74 643.279 103.932 643.279 102.959H644.879ZM647.278 100.375C647.905 100.375 648.477 100.17 648.992 99.7598C649.514 99.3438 649.774 98.6201 649.774 97.5889C649.774 96.6631 649.54 95.9746 649.071 95.5234C648.608 95.0664 648.017 94.8379 647.296 94.8379C646.522 94.8379 645.907 95.0986 645.45 95.6201C644.999 96.1357 644.773 96.8271 644.773 97.6943C644.773 98.5146 644.973 99.168 645.371 99.6543C645.77 100.135 646.405 100.375 647.278 100.375ZM669.787 99.8828C670.631 99.8828 671.352 100.182 671.949 100.779C672.547 101.377 672.846 102.098 672.846 102.941C672.846 103.785 672.547 104.506 671.949 105.104C671.352 105.701 670.631 106 669.787 106C668.938 106 668.214 105.701 667.616 105.104C667.019 104.506 666.72 103.785 666.72 102.941C666.72 102.098 667.019 101.377 667.616 100.779C668.214 100.182 668.938 99.8828 669.787 99.8828ZM668.513 93.4668H669.488L662.448 106.334H661.473L668.513 93.4668ZM661.156 98.6699C661.66 98.6699 662.088 98.4941 662.439 98.1426C662.797 97.7852 662.976 97.3574 662.976 96.8594C662.976 96.3613 662.797 95.9365 662.439 95.585C662.088 95.2275 661.66 95.0488 661.156 95.0488C660.658 95.0488 660.23 95.2246 659.873 95.5762C659.521 95.9277 659.346 96.3555 659.346 96.8594C659.346 97.3574 659.521 97.7852 659.873 98.1426C660.23 98.4941 660.658 98.6699 661.156 98.6699ZM661.156 93.792C662.006 93.792 662.729 94.0938 663.327 94.6973C663.925 95.2949 664.224 96.0156 664.224 96.8594C664.224 97.7031 663.925 98.4238 663.327 99.0215C662.729 99.6191 662.006 99.918 661.156 99.918C660.312 99.918 659.592 99.6191 658.994 99.0215C658.396 98.4238 658.098 97.7031 658.098 96.8594C658.098 96.0156 658.396 95.2949 658.994 94.6973C659.592 94.0938 660.312 93.792 661.156 93.792ZM669.787 104.752C670.285 104.752 670.71 104.576 671.062 104.225C671.419 103.867 671.598 103.439 671.598 102.941C671.598 102.443 671.419 102.019 671.062 101.667C670.71 101.31 670.285 101.131 669.787 101.131C669.283 101.131 668.853 101.31 668.495 101.667C668.144 102.019 667.968 102.443 667.968 102.941C667.968 103.439 668.144 103.867 668.495 104.225C668.853 104.576 669.283 104.752 669.787 104.752Z" fill="black"/>
<rect x="365" y="92" width="262" height="15" fill="#9B9B99"/>
<rect x="365" y="92" width="179" height="15" fill="#43C0F0"/>
<path d="M335.421 122.544V116.84L331.387 122.544H335.421ZM335.447 127V123.924H329.928V122.377L335.693 114.379H337.029V122.544H338.884V123.924H337.029V127H335.447ZM344.386 119.688C345.083 119.688 345.628 119.494 346.021 119.107C346.413 118.715 346.609 118.249 346.609 117.71C346.609 117.241 346.422 116.811 346.047 116.418C345.672 116.025 345.101 115.829 344.333 115.829C343.571 115.829 343.021 116.025 342.681 116.418C342.341 116.811 342.171 117.271 342.171 117.798C342.171 118.39 342.391 118.853 342.83 119.187C343.27 119.521 343.788 119.688 344.386 119.688ZM344.482 125.919C345.215 125.919 345.821 125.723 346.302 125.33C346.788 124.932 347.031 124.34 347.031 123.555C347.031 122.74 346.782 122.122 346.284 121.7C345.786 121.278 345.147 121.067 344.368 121.067C343.612 121.067 342.994 121.284 342.514 121.718C342.039 122.146 341.802 122.74 341.802 123.502C341.802 124.158 342.019 124.727 342.452 125.207C342.892 125.682 343.568 125.919 344.482 125.919ZM342.232 120.294C341.793 120.106 341.45 119.887 341.204 119.635C340.741 119.166 340.51 118.557 340.51 117.807C340.51 116.869 340.85 116.063 341.529 115.39C342.209 114.716 343.173 114.379 344.421 114.379C345.628 114.379 346.574 114.698 347.26 115.337C347.945 115.97 348.288 116.711 348.288 117.561C348.288 118.346 348.089 118.981 347.69 119.468C347.468 119.743 347.122 120.013 346.653 120.276C347.175 120.517 347.585 120.792 347.884 121.103C348.44 121.688 348.719 122.45 348.719 123.388C348.719 124.495 348.347 125.436 347.603 126.209C346.858 126.977 345.807 127.36 344.447 127.36C343.223 127.36 342.186 127.029 341.336 126.367C340.492 125.699 340.07 124.732 340.07 123.467C340.07 122.723 340.252 122.081 340.615 121.542C340.979 120.997 341.518 120.581 342.232 120.294ZM355.996 114.959H357.596V117.587H359.099V118.879H357.596V125.022C357.596 125.351 357.707 125.57 357.93 125.682C358.053 125.746 358.258 125.778 358.545 125.778C358.621 125.778 358.703 125.778 358.791 125.778C358.879 125.772 358.981 125.764 359.099 125.752V127C358.917 127.053 358.727 127.091 358.527 127.114C358.334 127.138 358.123 127.149 357.895 127.149C357.156 127.149 356.655 126.962 356.392 126.587C356.128 126.206 355.996 125.714 355.996 125.11V118.879H354.722V117.587H355.996V114.959Z" fill="black"/>
<path d="M637.364 119.688C638.062 119.688 638.606 119.494 638.999 119.107C639.392 118.715 639.588 118.249 639.588 117.71C639.588 117.241 639.4 116.811 639.025 116.418C638.65 116.025 638.079 115.829 637.312 115.829C636.55 115.829 635.999 116.025 635.659 116.418C635.319 116.811 635.149 117.271 635.149 117.798C635.149 118.39 635.369 118.853 635.809 119.187C636.248 119.521 636.767 119.688 637.364 119.688ZM637.461 125.919C638.193 125.919 638.8 125.723 639.28 125.33C639.767 124.932 640.01 124.34 640.01 123.555C640.01 122.74 639.761 122.122 639.263 121.7C638.765 121.278 638.126 121.067 637.347 121.067C636.591 121.067 635.973 121.284 635.492 121.718C635.018 122.146 634.78 122.74 634.78 123.502C634.78 124.158 634.997 124.727 635.431 125.207C635.87 125.682 636.547 125.919 637.461 125.919ZM635.211 120.294C634.771 120.106 634.429 119.887 634.183 119.635C633.72 119.166 633.488 118.557 633.488 117.807C633.488 116.869 633.828 116.063 634.508 115.39C635.188 114.716 636.151 114.379 637.399 114.379C638.606 114.379 639.553 114.698 640.238 115.337C640.924 115.97 641.267 116.711 641.267 117.561C641.267 118.346 641.067 118.981 640.669 119.468C640.446 119.743 640.101 120.013 639.632 120.276C640.153 120.517 640.563 120.792 640.862 121.103C641.419 121.688 641.697 122.45 641.697 123.388C641.697 124.495 641.325 125.436 640.581 126.209C639.837 126.977 638.785 127.36 637.426 127.36C636.201 127.36 635.164 127.029 634.314 126.367C633.471 125.699 633.049 124.732 633.049 123.467C633.049 122.723 633.23 122.081 633.594 121.542C633.957 120.997 634.496 120.581 635.211 120.294ZM647.753 114.361C649.159 114.361 650.138 114.728 650.688 115.46C651.245 116.187 651.523 116.937 651.523 117.71H649.959C649.865 117.212 649.716 116.822 649.511 116.541C649.13 116.014 648.553 115.75 647.779 115.75C646.895 115.75 646.191 116.16 645.67 116.98C645.148 117.795 644.858 118.964 644.8 120.487C645.163 119.954 645.62 119.556 646.171 119.292C646.675 119.058 647.237 118.94 647.858 118.94C648.913 118.94 649.833 119.277 650.618 119.951C651.403 120.625 651.796 121.63 651.796 122.966C651.796 124.108 651.424 125.122 650.68 126.007C649.936 126.886 648.875 127.325 647.498 127.325C646.32 127.325 645.304 126.88 644.448 125.989C643.593 125.093 643.165 123.587 643.165 121.472C643.165 119.907 643.355 118.58 643.736 117.49C644.469 115.404 645.808 114.361 647.753 114.361ZM647.639 125.919C648.471 125.919 649.092 125.641 649.502 125.084C649.918 124.521 650.126 123.859 650.126 123.098C650.126 122.453 649.941 121.841 649.572 121.261C649.203 120.675 648.532 120.382 647.56 120.382C646.88 120.382 646.282 120.607 645.767 121.059C645.257 121.51 645.002 122.189 645.002 123.098C645.002 123.895 645.233 124.565 645.696 125.11C646.165 125.649 646.812 125.919 647.639 125.919ZM669.787 120.883C670.631 120.883 671.352 121.182 671.949 121.779C672.547 122.377 672.846 123.098 672.846 123.941C672.846 124.785 672.547 125.506 671.949 126.104C671.352 126.701 670.631 127 669.787 127C668.938 127 668.214 126.701 667.616 126.104C667.019 125.506 666.72 124.785 666.72 123.941C666.72 123.098 667.019 122.377 667.616 121.779C668.214 121.182 668.938 120.883 669.787 120.883ZM668.513 114.467H669.488L662.448 127.334H661.473L668.513 114.467ZM661.156 119.67C661.66 119.67 662.088 119.494 662.439 119.143C662.797 118.785 662.976 118.357 662.976 117.859C662.976 117.361 662.797 116.937 662.439 116.585C662.088 116.228 661.66 116.049 661.156 116.049C660.658 116.049 660.23 116.225 659.873 116.576C659.521 116.928 659.346 117.355 659.346 117.859C659.346 118.357 659.521 118.785 659.873 119.143C660.23 119.494 660.658 119.67 661.156 119.67ZM661.156 114.792C662.006 114.792 662.729 115.094 663.327 115.697C663.925 116.295 664.224 117.016 664.224 117.859C664.224 118.703 663.925 119.424 663.327 120.021C662.729 120.619 662.006 120.918 661.156 120.918C660.312 120.918 659.592 120.619 658.994 120.021C658.396 119.424 658.098 118.703 658.098 117.859C658.098 117.016 658.396 116.295 658.994 115.697C659.592 115.094 660.312 114.792 661.156 114.792ZM669.787 125.752C670.285 125.752 670.71 125.576 671.062 125.225C671.419 124.867 671.598 124.439 671.598 123.941C671.598 123.443 671.419 123.019 671.062 122.667C670.71 122.31 670.285 122.131 669.787 122.131C669.283 122.131 668.853 122.31 668.495 122.667C668.144 123.019 667.968 123.443 667.968 123.941C667.968 124.439 668.144 124.867 668.495 125.225C668.853 125.576 669.283 125.752 669.787 125.752Z" fill="black"/>
<rect x="365" y="113" width="262" height="15" fill="#9B9B99"/>
<rect x="365" y="113" width="230" height="15" fill="#43C0F0"/>
<path d="M338.884 135.625V137.005C338.479 137.397 337.94 138.08 337.267 139.053C336.599 140.025 336.007 141.074 335.491 142.199C334.981 143.295 334.595 144.294 334.331 145.196C334.161 145.776 333.941 146.711 333.672 148H331.923C332.321 145.598 333.2 143.207 334.56 140.828C335.362 139.434 336.206 138.229 337.091 137.216H330.13V135.625H338.884ZM340.053 148C340.111 146.916 340.334 145.973 340.721 145.17C341.113 144.367 341.875 143.638 343.006 142.981L344.693 142.006C345.449 141.566 345.979 141.191 346.284 140.881C346.765 140.395 347.005 139.838 347.005 139.211C347.005 138.479 346.785 137.898 346.346 137.471C345.906 137.037 345.32 136.82 344.588 136.82C343.504 136.82 342.754 137.23 342.338 138.051C342.115 138.49 341.992 139.1 341.969 139.879H340.36C340.378 138.783 340.58 137.89 340.967 137.198C341.652 135.979 342.862 135.37 344.597 135.37C346.038 135.37 347.09 135.76 347.752 136.539C348.42 137.318 348.754 138.186 348.754 139.141C348.754 140.148 348.399 141.01 347.69 141.725C347.28 142.141 346.545 142.645 345.484 143.236L344.28 143.904C343.706 144.221 343.255 144.522 342.927 144.81C342.341 145.319 341.972 145.885 341.819 146.506H348.692V148H340.053ZM355.996 135.959H357.596V138.587H359.099V139.879H357.596V146.022C357.596 146.351 357.707 146.57 357.93 146.682C358.053 146.746 358.258 146.778 358.545 146.778C358.621 146.778 358.703 146.778 358.791 146.778C358.879 146.772 358.981 146.764 359.099 146.752V148C358.917 148.053 358.727 148.091 358.527 148.114C358.334 148.138 358.123 148.149 357.895 148.149C357.156 148.149 356.655 147.962 356.392 147.587C356.128 147.206 355.996 146.714 355.996 146.11V139.879H354.722V138.587H355.996V135.959Z" fill="black"/>
<path d="M634.859 144.959C634.906 145.832 635.243 146.436 635.87 146.77C636.192 146.945 636.556 147.033 636.96 147.033C637.716 147.033 638.36 146.72 638.894 146.093C639.427 145.46 639.805 144.18 640.027 142.252C639.676 142.809 639.239 143.201 638.718 143.43C638.202 143.652 637.646 143.764 637.048 143.764C635.835 143.764 634.874 143.386 634.165 142.63C633.462 141.874 633.11 140.901 633.11 139.712C633.11 138.569 633.459 137.564 634.156 136.697C634.854 135.83 635.882 135.396 637.241 135.396C639.075 135.396 640.341 136.223 641.038 137.875C641.425 138.783 641.618 139.92 641.618 141.285C641.618 142.826 641.387 144.191 640.924 145.381C640.156 147.361 638.855 148.352 637.021 148.352C635.791 148.352 634.856 148.029 634.218 147.385C633.579 146.74 633.26 145.932 633.26 144.959H634.859ZM637.259 142.375C637.886 142.375 638.457 142.17 638.973 141.76C639.494 141.344 639.755 140.62 639.755 139.589C639.755 138.663 639.521 137.975 639.052 137.523C638.589 137.066 637.997 136.838 637.276 136.838C636.503 136.838 635.888 137.099 635.431 137.62C634.979 138.136 634.754 138.827 634.754 139.694C634.754 140.515 634.953 141.168 635.352 141.654C635.75 142.135 636.386 142.375 637.259 142.375ZM647.164 148.343C645.676 148.343 644.595 147.936 643.921 147.121C643.253 146.301 642.919 145.305 642.919 144.133H644.571C644.642 144.947 644.794 145.539 645.028 145.908C645.438 146.57 646.18 146.901 647.252 146.901C648.084 146.901 648.752 146.679 649.256 146.233C649.76 145.788 650.012 145.214 650.012 144.511C650.012 143.644 649.745 143.037 649.212 142.691C648.685 142.346 647.949 142.173 647.006 142.173C646.9 142.173 646.792 142.176 646.681 142.182C646.575 142.182 646.467 142.185 646.355 142.19V140.793C646.52 140.811 646.657 140.822 646.769 140.828C646.88 140.834 647 140.837 647.129 140.837C647.721 140.837 648.207 140.743 648.588 140.556C649.256 140.228 649.59 139.642 649.59 138.798C649.59 138.171 649.367 137.688 648.922 137.348C648.477 137.008 647.958 136.838 647.366 136.838C646.312 136.838 645.582 137.189 645.178 137.893C644.955 138.279 644.829 138.83 644.8 139.545H643.235C643.235 138.607 643.423 137.811 643.798 137.154C644.442 135.982 645.576 135.396 647.199 135.396C648.482 135.396 649.476 135.684 650.179 136.258C650.882 136.826 651.233 137.652 651.233 138.736C651.233 139.51 651.025 140.137 650.609 140.617C650.352 140.916 650.018 141.15 649.607 141.32C650.27 141.502 650.785 141.854 651.154 142.375C651.529 142.891 651.717 143.523 651.717 144.273C651.717 145.475 651.321 146.453 650.53 147.209C649.739 147.965 648.617 148.343 647.164 148.343ZM669.787 141.883C670.631 141.883 671.352 142.182 671.949 142.779C672.547 143.377 672.846 144.098 672.846 144.941C672.846 145.785 672.547 146.506 671.949 147.104C671.352 147.701 670.631 148 669.787 148C668.938 148 668.214 147.701 667.616 147.104C667.019 146.506 666.72 145.785 666.72 144.941C666.72 144.098 667.019 143.377 667.616 142.779C668.214 142.182 668.938 141.883 669.787 141.883ZM668.513 135.467H669.488L662.448 148.334H661.473L668.513 135.467ZM661.156 140.67C661.66 140.67 662.088 140.494 662.439 140.143C662.797 139.785 662.976 139.357 662.976 138.859C662.976 138.361 662.797 137.937 662.439 137.585C662.088 137.228 661.66 137.049 661.156 137.049C660.658 137.049 660.23 137.225 659.873 137.576C659.521 137.928 659.346 138.355 659.346 138.859C659.346 139.357 659.521 139.785 659.873 140.143C660.23 140.494 660.658 140.67 661.156 140.67ZM661.156 135.792C662.006 135.792 662.729 136.094 663.327 136.697C663.925 137.295 664.224 138.016 664.224 138.859C664.224 139.703 663.925 140.424 663.327 141.021C662.729 141.619 662.006 141.918 661.156 141.918C660.312 141.918 659.592 141.619 658.994 141.021C658.396 140.424 658.098 139.703 658.098 138.859C658.098 138.016 658.396 137.295 658.994 136.697C659.592 136.094 660.312 135.792 661.156 135.792ZM669.787 146.752C670.285 146.752 670.71 146.576 671.062 146.225C671.419 145.867 671.598 145.439 671.598 144.941C671.598 144.443 671.419 144.019 671.062 143.667C670.71 143.31 670.285 143.131 669.787 143.131C669.283 143.131 668.853 143.31 668.495 143.667C668.144 144.019 667.968 144.443 667.968 144.941C667.968 145.439 668.144 145.867 668.495 146.225C668.853 146.576 669.283 146.752 669.787 146.752Z" fill="black"/>
<rect x="365" y="134" width="262" height="15" fill="#9B9B99"/>
<rect x="365" y="134" width="245" height="15" fill="#43C0F0"/>
</svg>
