<svg width="60" height="60" viewBox="0 0 60 60" fill="none" xmlns="http://www.w3.org/2000/svg">
<path fill-rule="evenodd" clip-rule="evenodd" d="M18.75 28.125C18.75 27.09 19.59 26.25 20.625 26.25C21.66 26.25 22.5 27.09 22.5 28.125V50.625C22.5 51.6619 21.66 52.5 20.625 52.5C19.59 52.5 18.75 51.6619 18.75 50.625V28.125ZM28.125 28.125C28.125 27.09 28.965 26.25 30 26.25C31.035 26.25 31.875 27.09 31.875 28.125V50.625C31.875 51.6619 31.035 52.5 30 52.5C28.965 52.5 28.125 51.6619 28.125 50.625V28.125ZM37.5 28.125C37.5 27.09 38.34 26.25 39.375 26.25C40.41 26.25 41.25 27.09 41.25 28.125V50.625C41.25 51.6619 40.41 52.5 39.375 52.5C38.34 52.5 37.5 51.6619 37.5 50.625V28.125ZM9.375 52.5C9.375 56.6419 12.7331 60 16.875 60H43.125C47.2669 60 50.625 56.6419 50.625 52.5V22.5H9.375V52.5ZM35.625 7.5H24.375V5.625C24.375 4.58813 25.215 3.75 26.25 3.75H33.75C34.785 3.75 35.625 4.58813 35.625 5.625V7.5ZM50.625 7.5H39.375V3.75C39.375 1.68 37.695 0 35.625 0H24.375C22.305 0 20.625 1.68 20.625 3.75V7.5H9.375C7.305 7.5 5.625 9.18 5.625 11.25V15C5.625 17.07 7.30311 18.7481 9.37311 18.75H50.6288C52.6969 18.7481 54.375 17.07 54.375 15V11.25C54.375 9.18 52.695 7.5 50.625 7.5Z" fill="#E73A2D"/>
</svg>
